<svg width="383" height="820" viewBox="0 0 383 820" fill="none" xmlns="http://www.w3.org/2000/svg">
<g filter="url(#filter0_d_301_1445)">
<g clip-path="url(#clip0_301_1445)">
<rect x="4" width="375" height="812" rx="35" fill="url(#paint0_linear_301_1445)"/>
<g opacity="0.84">
<path opacity="0.3" fill-rule="evenodd" clip-rule="evenodd" d="M316.058 814.284C316.058 811.393 314.455 808.956 312.227 808.024C312.227 807.991 312.233 807.959 312.233 807.925C312.233 806.941 311.687 806.108 310.926 805.789L310.648 804.813C310.7 804.726 310.736 804.624 310.736 804.509C310.736 804.286 310.617 804.097 310.454 804.009L310.28 800.936C310.28 800.922 310.267 800.912 310.257 800.912C310.242 800.912 310.228 800.922 310.228 800.936L310.055 804.009C309.89 804.097 309.77 804.286 309.77 804.509C309.77 804.625 309.808 804.727 309.863 804.816L309.584 805.789C308.821 806.109 308.274 806.938 308.274 807.925C308.274 807.959 308.28 807.99 308.282 808.024C306.545 808.75 305.203 810.393 304.687 812.446V804.69H304.791C305.044 804.69 305.248 804.456 305.248 804.163V803.863C305.248 803.574 305.044 803.336 304.791 803.336H304.169C304.198 803.14 304.215 802.946 304.215 802.738C304.215 801.328 303.565 800.089 302.591 799.399C301.994 798.972 301.477 798.413 301.067 797.761C301.143 797.678 301.191 797.559 301.191 797.43C301.191 797.246 301.095 797.085 300.954 797.017L300.855 795.233H300.74L300.639 797.017C300.5 797.085 300.404 797.246 300.404 797.43C300.404 797.559 300.45 797.678 300.527 797.761C300.121 798.416 299.605 798.972 299 799.399C298.028 800.089 297.38 801.328 297.38 802.738C297.38 802.946 297.397 803.14 297.421 803.336H296.821C296.567 803.336 296.361 803.574 296.361 803.863V804.163C296.361 804.456 296.567 804.69 296.821 804.69H296.909V812.086H295.419C295.805 811.253 296.015 810.362 296.015 809.443C296.015 806.231 293.472 803.419 289.661 801.849C287.18 800.823 285.066 799.443 283.42 797.839C283.484 797.698 283.526 797.546 283.526 797.375C283.526 796.956 283.307 796.596 282.99 796.436L282.764 792.385H282.5L282.275 796.436C281.958 796.595 281.735 796.956 281.735 797.375C281.735 797.546 281.781 797.697 281.843 797.839C280.335 799.316 278.451 800.579 276.224 801.575C276.168 801.049 276.048 800.499 275.837 799.948C275.505 799.051 274.83 798.235 274.062 797.497C273.318 796.786 272.483 796.179 271.808 795.732C271.832 795.627 271.877 795.468 271.877 795.31C271.877 795.1 271.854 794.863 271.775 794.625C271.683 794.388 271.488 794.151 271.27 793.967C271.076 793.782 270.858 793.624 270.698 793.518L270.686 793.124C270.733 793.072 270.756 793.045 270.778 792.966C270.824 792.913 270.835 792.834 270.835 792.756C270.835 792.676 270.812 792.596 270.778 792.518C270.745 792.465 270.709 792.412 270.652 792.386L270.641 792.016C270.663 791.991 270.698 791.938 270.71 791.911C270.745 791.858 270.756 791.806 270.756 791.727C270.756 791.674 270.733 791.594 270.71 791.543C270.686 791.49 270.653 791.464 270.619 791.437L270.595 791.042L270.481 788.197C270.481 788.145 270.458 788.117 270.436 788.117C270.401 788.145 270.377 788.171 270.377 788.197L270.263 791.042L270.252 791.437C270.206 791.465 270.184 791.49 270.161 791.543C270.127 791.594 270.114 791.674 270.114 791.727C270.114 791.806 270.114 791.858 270.148 791.911C270.161 791.938 270.195 791.991 270.23 792.016L270.206 792.386C270.161 792.412 270.114 792.465 270.092 792.518C270.046 792.596 270.022 792.676 270.022 792.756C270.022 792.834 270.046 792.913 270.08 792.966C270.104 793.045 270.137 793.072 270.184 793.124L270.16 793.518C270 793.624 269.794 793.782 269.587 793.967C269.381 794.151 269.187 794.388 269.084 794.625C269.004 794.862 268.981 795.1 268.993 795.31C268.993 795.468 269.028 795.627 269.061 795.732C268.374 796.179 267.551 796.786 266.807 797.497C266.424 797.866 266.061 798.254 265.752 798.662C263.538 792.412 258.358 787.933 252.218 787.537V786.898C252.218 786.668 252.054 786.479 251.855 786.479H251.571L251.339 779.761C251.986 780.016 252.689 780.113 253.41 779.966C254.573 779.732 255.537 778.973 256.159 777.938C255.711 778.256 255.209 778.483 254.66 778.594C252.37 779.056 250.18 777.289 249.78 774.651C249.582 773.343 249.853 772.07 250.458 771.061C249.042 772.077 248.224 774.012 248.531 776.024C248.789 777.718 249.786 779.042 251.072 779.659L250.845 786.479H250.554C250.46 786.479 250.372 786.521 250.305 786.598C250.238 786.674 250.201 786.779 250.201 786.886V787.55C244.509 788.024 239.666 792.009 237.303 797.639L237.254 789.159H237.456C237.786 789.159 238.059 788.845 238.059 788.471C238.059 788.096 237.786 787.787 237.456 787.787H237.254L237.208 778.256H237.456C237.748 778.256 237.992 777.986 237.992 777.65C237.992 777.363 237.82 777.121 237.59 777.055V774.201H237.8C237.953 774.201 238.077 774.057 238.077 773.881C238.077 773.711 237.954 773.572 237.8 773.572H237.541C237.694 773.06 237.877 772.08 237.498 771.082C237.321 770.619 236.958 770.179 236.556 769.793C236.158 769.419 235.718 769.099 235.359 768.868C235.378 768.802 235.397 768.725 235.397 768.63C235.402 768.515 235.392 768.393 235.339 768.274C235.296 768.141 235.191 768.019 235.076 767.92C234.977 767.826 234.862 767.749 234.775 767.694L234.766 767.479C234.785 767.457 234.809 767.429 234.818 767.402C234.838 767.364 234.847 767.325 234.847 767.287C234.847 767.241 234.838 767.192 234.814 767.16C234.804 767.127 234.775 767.104 234.751 767.082L234.747 766.895C234.756 766.878 234.775 766.857 234.785 766.829C234.798 766.807 234.804 766.774 234.804 766.741C234.804 766.708 234.798 766.67 234.78 766.642C234.77 766.62 234.751 766.597 234.727 766.575L234.722 766.377L234.665 764.868C234.66 764.846 234.651 764.835 234.632 764.835C234.612 764.835 234.603 764.851 234.603 764.868L234.545 766.377L234.537 766.575C234.517 766.598 234.498 766.62 234.488 766.642C234.469 766.67 234.459 766.708 234.459 766.741C234.459 766.774 234.469 766.807 234.483 766.829C234.494 766.857 234.508 766.878 234.527 766.895L234.518 767.082C234.489 767.104 234.469 767.127 234.45 767.16C234.431 767.192 234.422 767.242 234.422 767.287C234.422 767.325 234.431 767.364 234.45 767.402C234.459 767.429 234.479 767.457 234.498 767.479L234.494 767.694C234.412 767.749 234.296 767.826 234.192 767.92C234.076 768.019 233.971 768.141 233.924 768.274C233.875 768.393 233.867 768.515 233.871 768.63C233.875 768.725 233.89 768.802 233.904 768.868C233.55 769.099 233.11 769.419 232.717 769.793C232.305 770.179 231.952 770.619 231.77 771.082C231.387 772.08 231.579 773.06 231.727 773.572H231.417C231.272 773.572 231.148 773.711 231.148 773.881C231.148 774.057 231.272 774.201 231.417 774.201H231.646V777.055C231.412 777.116 231.235 777.358 231.235 777.65C231.235 777.986 231.473 778.256 231.761 778.256H232.02L231.971 787.787H231.761C231.435 787.787 231.168 788.096 231.168 788.471C231.168 788.845 231.435 789.159 231.761 789.159H231.961L231.935 794.697C229.882 789.717 223.757 790.251 221.946 793.857V792.726H222.03C222.25 792.726 222.419 792.531 222.419 792.297C222.419 792.025 222.25 791.83 222.03 791.83H221.811C222.217 790.816 223.182 787.541 221.911 784.226C221.42 782.9 220.422 781.692 219.286 780.601C218.184 779.547 216.949 778.651 215.95 777.988C215.984 777.832 216.051 777.597 216.051 777.364C216.051 777.052 216.017 776.701 215.9 776.35C215.763 775.999 215.475 775.648 215.153 775.376C214.866 775.103 214.545 774.868 214.307 774.712L214.289 774.128C214.359 774.05 214.392 774.011 214.425 773.894C214.494 773.816 214.51 773.699 214.51 773.583C214.51 773.464 214.476 773.347 214.425 773.231C214.376 773.153 214.323 773.074 214.24 773.036L214.222 772.489C214.255 772.451 214.307 772.373 214.324 772.334C214.376 772.256 214.392 772.178 214.392 772.062C214.392 771.984 214.359 771.866 214.324 771.789C214.289 771.71 214.24 771.672 214.189 771.633L214.155 771.048L213.985 766.837C213.985 766.759 213.952 766.72 213.918 766.72C213.867 766.759 213.832 766.798 213.832 766.837L213.663 771.048L213.647 771.633C213.577 771.672 213.545 771.711 213.511 771.789C213.46 771.866 213.443 771.984 213.443 772.062C213.443 772.178 213.443 772.256 213.493 772.334C213.511 772.373 213.562 772.451 213.613 772.489L213.578 773.036C213.511 773.074 213.443 773.153 213.41 773.231C213.342 773.347 213.308 773.464 213.308 773.583C213.308 773.699 213.342 773.816 213.392 773.894C213.427 774.011 213.478 774.05 213.546 774.128L213.511 774.712C213.274 774.868 212.97 775.103 212.665 775.376C212.36 775.648 212.072 775.999 211.919 776.35C211.799 776.701 211.767 777.052 211.783 777.364C211.783 777.597 211.835 777.832 211.885 777.988C210.869 778.651 209.649 779.547 208.55 780.601C207.415 781.692 206.398 782.9 205.906 784.226C204.637 787.541 205.618 790.816 206.007 791.83H205.805C205.585 791.83 205.415 792.025 205.415 792.297C205.415 792.531 205.585 792.726 205.805 792.726H205.99V793.857H204.164L204.128 773.777H204.67C205.027 773.777 205.313 773.426 205.313 773.037C205.313 772.608 205.026 772.296 204.67 772.296H204.128L204.078 761.184H204.264C204.569 761.184 204.84 760.911 204.84 760.56C204.84 760.17 204.569 759.897 204.264 759.897H204.059L204.027 750.891H204.264C204.535 750.891 204.772 750.618 204.772 750.306C204.772 750.033 204.602 749.799 204.382 749.761V747.031H204.586C204.737 747.031 204.84 746.913 204.84 746.757C204.84 746.601 204.737 746.445 204.586 746.445H204.349C204.484 745.977 204.67 745.042 204.299 744.107C204.128 743.678 203.789 743.248 203.417 742.898C203.044 742.508 202.621 742.234 202.282 742.001C202.3 741.962 202.317 741.884 202.317 741.767C202.317 741.689 202.3 741.573 202.265 741.455C202.214 741.299 202.13 741.182 202.012 741.104C201.91 741.026 201.808 740.949 201.722 740.909V740.675C201.741 740.675 201.757 740.637 201.757 740.597C201.791 740.597 201.791 740.558 201.791 740.519C201.791 740.48 201.791 740.441 201.757 740.402C201.757 740.363 201.722 740.324 201.69 740.324V740.129C201.722 740.129 201.722 740.091 201.741 740.091C201.757 740.051 201.757 740.012 201.757 739.972C201.757 739.972 201.757 739.934 201.722 739.894C201.722 739.856 201.707 739.856 201.69 739.856L201.673 739.661L201.621 738.218C201.621 738.218 201.605 738.179 201.587 738.179C201.57 738.179 201.554 738.218 201.554 738.218L201.503 739.661V739.856C201.486 739.856 201.452 739.856 201.452 739.894C201.435 739.934 201.419 739.972 201.419 739.972C201.419 740.012 201.435 740.051 201.452 740.091C201.452 740.091 201.469 740.129 201.486 740.129V740.324C201.452 740.324 201.435 740.363 201.419 740.402C201.4 740.441 201.385 740.48 201.385 740.519C201.385 740.558 201.4 740.597 201.419 740.597C201.419 740.637 201.452 740.675 201.469 740.675L201.452 740.909C201.385 740.949 201.282 741.027 201.181 741.104C201.062 741.182 200.978 741.298 200.91 741.455C200.876 741.573 200.876 741.689 200.876 741.767C200.876 741.884 200.893 741.962 200.91 742.001C200.571 742.234 200.148 742.508 199.774 742.898C199.386 743.248 199.046 743.677 198.878 744.107C198.523 745.042 198.71 745.977 198.845 746.445H198.556C198.403 746.445 198.302 746.601 198.302 746.757C198.302 746.914 198.403 747.031 198.556 747.031H198.76V747.771C198.76 747.811 198.76 747.849 198.741 747.888L198.76 747.966V749.761C198.54 749.799 198.37 750.033 198.37 750.306C198.37 750.618 198.607 750.891 198.878 750.891H199.116L199.081 759.897H198.878C198.573 759.897 198.302 760.17 198.302 760.56C198.302 760.911 198.573 761.184 198.878 761.184H199.063L199.013 772.296H198.47C198.117 772.296 197.827 772.609 197.827 773.037C197.827 773.426 198.117 773.777 198.47 773.777H198.997L198.979 785.357H198.014V780.718H195.811V779.587H195.898C196.1 779.587 196.287 779.391 196.287 779.158C196.287 778.886 196.1 778.69 195.898 778.69H195.694C196.083 777.676 197.048 774.401 195.795 771.087C195.289 769.762 194.289 768.553 193.154 767.462C192.052 766.409 190.816 765.511 189.818 764.848C189.868 764.692 189.901 764.459 189.935 764.186C189.935 763.913 189.901 763.562 189.766 763.211C189.631 762.86 189.343 762.509 189.021 762.236C188.734 761.963 188.412 761.729 188.174 761.573L188.157 760.989C188.224 760.91 188.276 760.871 188.31 760.754C188.344 760.676 188.378 760.559 188.378 760.442C188.378 760.324 188.344 760.208 188.31 760.092C188.242 760.014 188.191 759.936 188.107 759.896L188.089 759.351C188.14 759.312 188.174 759.234 188.208 759.195C188.242 759.117 188.276 759.039 188.276 758.922C188.276 758.844 188.242 758.727 188.208 758.648C188.174 758.571 188.107 758.532 188.057 758.493L188.038 757.908L187.87 753.698C187.87 753.619 187.836 753.58 187.785 753.58C187.733 753.619 187.701 753.658 187.701 753.698L187.531 757.908L187.515 758.493C187.462 758.532 187.412 758.571 187.379 758.648C187.327 758.727 187.31 758.844 187.31 758.922C187.31 759.039 187.327 759.117 187.362 759.195C187.397 759.234 187.43 759.312 187.481 759.351L187.463 759.896C187.397 759.936 187.328 760.014 187.277 760.092C187.226 760.208 187.193 760.324 187.193 760.442C187.193 760.559 187.226 760.676 187.26 760.754C187.294 760.872 187.362 760.91 187.43 760.989L187.397 761.573C187.159 761.728 186.853 761.963 186.548 762.236C186.243 762.509 185.938 762.86 185.804 763.211C185.668 763.562 185.634 763.913 185.651 764.186C185.668 764.459 185.701 764.692 185.751 764.848C184.754 765.511 183.534 766.409 182.416 767.462C181.281 768.552 180.282 769.761 179.79 771.087C178.521 774.401 179.503 777.676 179.875 778.69H179.673C179.469 778.69 179.299 778.886 179.299 779.158C179.299 779.391 179.469 779.587 179.673 779.587H179.875V780.718H177.555V785.357H175.879V781.848C176.082 781.692 176.252 781.458 176.252 781.146C176.252 780.717 175.981 780.327 175.642 780.25V775.921H175.964C176.183 775.921 176.37 775.688 176.37 775.454C176.37 775.18 176.183 774.987 175.964 774.987H175.575C175.796 774.206 176.082 772.724 175.505 771.204C175.235 770.502 174.693 769.839 174.083 769.256C173.473 768.67 172.813 768.202 172.255 767.851C172.29 767.773 172.323 767.617 172.323 767.499C172.323 767.306 172.323 767.149 172.238 766.954C172.152 766.76 172.017 766.564 171.832 766.409C171.679 766.292 171.51 766.136 171.374 766.058V765.746C171.408 765.706 171.441 765.668 171.441 765.628C171.476 765.589 171.492 765.511 171.492 765.473C171.492 765.395 171.476 765.316 171.441 765.279C171.408 765.2 171.374 765.161 171.34 765.161V764.848C171.357 764.848 171.374 764.81 171.391 764.77C171.409 764.732 171.425 764.692 171.425 764.615C171.425 764.576 171.409 764.536 171.391 764.498C171.374 764.458 171.34 764.419 171.305 764.38V764.069L171.205 761.807C171.205 761.769 171.187 761.728 171.17 761.728C171.138 761.728 171.119 761.769 171.119 761.807L171.035 764.069L171.018 764.38C170.983 764.419 170.967 764.458 170.934 764.498C170.917 764.536 170.899 764.576 170.899 764.615C170.899 764.692 170.917 764.732 170.934 764.77C170.95 764.81 170.967 764.848 171.001 764.848V765.161C170.95 765.161 170.917 765.2 170.899 765.279C170.865 765.316 170.831 765.395 170.831 765.473C170.831 765.511 170.865 765.589 170.882 765.628C170.899 765.668 170.934 765.706 170.967 765.746L170.95 766.058C170.831 766.136 170.662 766.292 170.493 766.409C170.325 766.564 170.171 766.76 170.085 766.954C170.02 767.149 170.001 767.345 170.02 767.499C170.02 767.617 170.036 767.773 170.053 767.851C169.528 768.202 168.866 768.67 168.258 769.256C167.647 769.839 167.106 770.502 166.834 771.204C166.258 772.724 166.529 774.206 166.766 774.987H166.292C166.073 774.987 165.886 775.18 165.886 775.454C165.886 775.688 166.073 775.921 166.292 775.921H166.632V780.25C166.292 780.327 166.022 780.717 166.022 781.146C166.022 781.458 166.174 781.692 166.361 781.848V785.357H166.336V785.207C164.884 773.614 158.66 764 143.116 756.81C135.122 753.11 131.158 748.082 129.217 744.391C131.078 743.455 132.38 741.32 132.38 738.833C132.38 735.87 130.533 733.408 128.093 732.878L128.007 730.203C128.681 729.865 129.152 729.095 129.152 728.195C129.152 727.239 128.617 726.434 127.875 726.134L127.668 719.717C130.03 720.301 132.548 720.201 135 719.249C138.683 717.818 141.486 714.798 143.057 711.075C141.746 712.367 140.209 713.394 138.475 714.068C131.214 716.885 123.335 712.391 120.884 704.034C119.67 699.893 120.009 695.592 121.542 691.96C117.365 696.079 115.541 702.845 117.41 709.216C118.96 714.51 122.696 718.246 127.07 719.562L126.73 726.095C125.932 726.357 125.344 727.193 125.344 728.195C125.344 729.106 125.827 729.886 126.514 730.217L126.378 732.834C123.816 733.246 121.843 735.771 121.843 738.833C121.843 741.429 123.261 743.636 125.253 744.502C123.292 748.183 119.326 753.148 111.412 756.81C96.93 763.509 90.5346 772.312 88.5553 782.86V781.848C88.7415 781.692 88.8939 781.458 88.8939 781.146C88.8939 780.717 88.6242 780.327 88.2845 780.25V775.921H88.6242C88.8432 775.921 89.0294 775.688 89.0294 775.454C89.0294 775.18 88.8432 774.987 88.6242 774.987H88.15C88.3873 774.206 88.6577 772.724 88.0819 771.204C87.8103 770.502 87.2691 769.839 86.6578 769.256C86.0496 768.67 85.3881 768.202 84.8629 767.851C84.8804 767.773 84.8964 767.617 84.8964 767.499C84.9146 767.344 84.8964 767.149 84.8305 766.954C84.7452 766.76 84.5913 766.564 84.423 766.409C84.2539 766.292 84.0844 766.136 83.9659 766.058L83.9488 765.746C83.9823 765.706 84.017 765.668 84.0341 765.628C84.0505 765.589 84.0848 765.511 84.0848 765.473C84.0848 765.395 84.0505 765.316 84.017 765.279C83.9994 765.2 83.9659 765.161 83.9153 765.161V764.848C83.9488 764.848 83.9659 764.81 83.9823 764.77C83.9994 764.732 84.017 764.692 84.017 764.615C84.017 764.576 83.9994 764.536 83.9823 764.498C83.9488 764.458 83.9328 764.419 83.8981 764.38L83.8818 764.069L83.7964 761.807C83.7964 761.769 83.7782 761.728 83.7458 761.728C83.7287 761.728 83.7111 761.769 83.7111 761.807L83.611 764.069V764.38C83.5763 764.419 83.5416 764.458 83.5245 764.498C83.5074 764.536 83.491 764.576 83.491 764.615C83.491 764.692 83.5074 764.732 83.5245 764.77C83.5416 764.81 83.5592 764.848 83.5763 764.848V765.161C83.5416 765.161 83.5074 765.2 83.475 765.279C83.4403 765.316 83.424 765.395 83.424 765.473C83.424 765.511 83.4403 765.589 83.475 765.628C83.475 765.668 83.5074 765.706 83.5417 765.746V766.058C83.4061 766.136 83.2366 766.292 83.0846 766.409C82.8984 766.564 82.7635 766.76 82.6782 766.954C82.5933 767.149 82.5933 767.306 82.5933 767.499C82.5933 767.617 82.6264 767.773 82.6611 767.851C82.1028 768.202 81.4431 768.67 80.8326 769.256C80.2225 769.839 79.6813 770.502 79.4109 771.204C78.8339 772.724 79.1206 774.206 79.3415 774.987H78.9515C78.7329 774.987 78.5463 775.18 78.5463 775.454C78.5463 775.688 78.7329 775.921 78.9515 775.921H79.2741V780.25C78.9355 780.327 78.6636 780.717 78.6636 781.146C78.6636 781.458 78.8338 781.692 79.0365 781.848V785.357H77.3603V780.718H75.0401V779.587H75.2427C75.4465 779.587 75.6167 779.391 75.6167 779.158C75.6167 778.886 75.4465 778.69 75.2427 778.69H75.0401C75.413 777.676 76.3944 774.401 75.1254 771.087C74.6337 769.762 73.6355 768.553 72.499 767.462C71.382 766.409 70.1617 765.511 69.1642 764.848C69.2141 764.692 69.2476 764.459 69.2648 764.186C69.2811 763.913 69.2476 763.562 69.1117 763.211C68.9768 762.86 68.6733 762.509 68.3678 762.236C68.0628 761.963 67.757 761.729 67.5193 761.573L67.4858 760.989C67.5539 760.91 67.6217 760.871 67.656 760.754C67.6895 760.676 67.723 760.559 67.723 760.442C67.723 760.324 67.6895 760.208 67.6389 760.092C67.5882 760.014 67.5193 759.936 67.4526 759.896L67.4351 759.351C67.4858 759.312 67.5193 759.234 67.5539 759.195C67.5886 759.117 67.6057 759.039 67.6057 758.922C67.6057 758.844 67.5886 758.727 67.5368 758.648C67.5033 758.571 67.4526 758.532 67.4008 758.493L67.3848 757.908L67.2146 753.698C67.2146 753.658 67.1822 753.619 67.1304 753.58C67.0798 753.58 67.0463 753.619 67.0463 753.698L66.8772 757.908L66.8585 758.493C66.809 758.532 66.7408 758.571 66.7077 758.648C66.673 758.727 66.6395 758.844 66.6395 758.922C66.6395 759.039 66.673 759.117 66.7077 759.195C66.7408 759.234 66.7755 759.312 66.8261 759.351L66.809 759.896C66.7237 759.936 66.6734 760.014 66.6052 760.092C66.5717 760.208 66.5374 760.324 66.5374 760.442C66.5374 760.559 66.5717 760.676 66.6052 760.754C66.6399 760.872 66.6917 760.91 66.7583 760.989L66.7408 761.573C66.5039 761.728 66.1813 761.963 65.8945 762.236C65.572 762.509 65.284 762.86 65.1496 763.211C65.014 763.562 64.9805 763.913 64.9805 764.186C65.014 764.459 65.0475 764.692 65.097 764.848C64.0988 765.511 62.8633 766.409 61.7615 767.462C60.6265 768.552 59.6271 769.761 59.1198 771.087C57.8672 774.401 58.8319 777.676 59.2215 778.69H59.0178C58.8151 778.69 58.6285 778.886 58.6285 779.158C58.6285 779.391 58.8151 779.587 59.0178 779.587H59.1042V780.718H56.9017V785.357H55.9358L55.9183 773.777H56.4447C56.7985 773.777 57.0879 773.426 57.0879 773.037C57.0879 772.608 56.7981 772.296 56.4447 772.296H55.9023L55.8517 761.184H56.0379C56.3418 761.184 56.6126 760.911 56.6126 760.56C56.6126 760.17 56.3418 759.897 56.0379 759.897H55.8342L55.7995 750.891H56.0379C56.3087 750.891 56.5456 750.618 56.5456 750.306C56.5456 750.033 56.3754 749.799 56.1556 749.761V747.966L56.1739 747.888C56.1556 747.849 56.1556 747.811 56.1556 747.771V747.031H56.3594C56.5121 747.031 56.6126 746.913 56.6126 746.757C56.6126 746.601 56.5121 746.445 56.3594 746.445H56.0703C56.2059 745.977 56.3917 745.042 56.0379 744.107C55.8688 743.678 55.5291 743.248 55.1414 742.898C54.7674 742.508 54.3442 742.234 54.0049 742.001C54.0224 741.962 54.0395 741.884 54.0395 741.767C54.0395 741.689 54.0395 741.573 54.0049 741.455C53.9371 741.299 53.8533 741.182 53.7345 741.104C53.6328 741.026 53.5307 740.949 53.4637 740.909L53.4465 740.675C53.4637 740.675 53.4961 740.637 53.4961 740.597C53.5147 740.597 53.5307 740.558 53.5307 740.519C53.5307 740.48 53.5147 740.441 53.4961 740.402C53.4801 740.363 53.4637 740.324 53.429 740.324V740.129C53.4466 740.129 53.4637 740.091 53.4637 740.091C53.4801 740.051 53.4961 740.012 53.4961 739.972C53.4961 739.972 53.4801 739.934 53.4637 739.894C53.4637 739.856 53.429 739.856 53.4119 739.856V739.661L53.3612 738.218C53.3612 738.218 53.3449 738.179 53.3289 738.179C53.3106 738.179 53.2942 738.218 53.2942 738.218L53.2424 739.661L53.2253 739.856C53.2089 739.856 53.1929 739.856 53.1929 739.894C53.1582 739.934 53.1582 739.972 53.1582 739.972C53.1582 740.012 53.1582 740.051 53.1742 740.091C53.1929 740.091 53.1929 740.129 53.2253 740.129V740.324C53.1929 740.324 53.1582 740.363 53.1582 740.402C53.1247 740.441 53.1247 740.48 53.1247 740.519C53.1247 740.558 53.1247 740.597 53.1582 740.597C53.1582 740.637 53.1742 740.675 53.1929 740.675V740.909C53.1076 740.949 53.0051 741.027 52.9038 741.104C52.785 741.182 52.7012 741.298 52.6506 741.455C52.6159 741.573 52.5988 741.689 52.5988 741.767C52.5988 741.884 52.6159 741.962 52.633 742.001C52.2945 742.234 51.8709 742.508 51.4981 742.898C51.126 743.248 50.7866 743.677 50.6164 744.107C50.2454 745.042 50.4313 745.977 50.5657 746.445H50.3296C50.1776 746.445 50.0752 746.601 50.0752 746.757C50.0752 746.914 50.1776 747.031 50.3296 747.031H50.5334V749.761C50.3136 749.799 50.1434 750.033 50.1434 750.306C50.1434 750.618 50.3803 750.891 50.651 750.891H50.8879L50.8559 759.897H50.651C50.3467 759.897 50.0752 760.17 50.0752 760.56C50.0752 760.911 50.3467 761.184 50.651 761.184H50.8373L50.7866 772.296H50.2454C49.8886 772.296 49.6018 772.609 49.6018 773.037C49.6018 773.426 49.8889 773.777 50.2454 773.777H50.7866L50.752 793.857H48.9246V792.726H49.1101C49.331 792.726 49.5001 792.531 49.5001 792.297C49.5001 792.025 49.331 791.83 49.1101 791.83H48.9086C49.2967 790.816 50.2789 787.541 49.0088 784.226C48.5171 782.9 47.5006 781.692 46.3656 780.601C45.2657 779.547 44.0466 778.651 43.0301 777.988C43.0807 777.832 43.1325 777.597 43.1325 777.364C43.1485 777.052 43.1154 776.701 42.9969 776.35C42.8438 775.999 42.5559 775.648 42.2508 775.376C41.9457 775.103 41.6414 774.868 41.4042 774.712L41.3699 774.128C41.4377 774.05 41.4887 774.011 41.5226 773.894C41.5737 773.816 41.6079 773.699 41.6079 773.583C41.6079 773.464 41.5737 773.347 41.5055 773.231C41.472 773.153 41.4038 773.074 41.3375 773.036L41.3029 772.489C41.3535 772.451 41.4042 772.373 41.4217 772.334C41.4723 772.256 41.4723 772.178 41.4723 772.062C41.4723 771.984 41.4552 771.866 41.4042 771.789C41.3699 771.71 41.3375 771.672 41.2686 771.633L41.2526 771.048L41.0835 766.837C41.0835 766.798 41.0488 766.759 40.997 766.72C40.9635 766.72 40.93 766.759 40.93 766.837L40.7609 771.048L40.7262 771.633C40.6756 771.672 40.6261 771.711 40.5914 771.789C40.5568 771.866 40.5232 771.984 40.5232 772.062C40.5232 772.178 40.5396 772.256 40.5914 772.334C40.6086 772.373 40.6604 772.451 40.6927 772.489L40.6756 773.036C40.5914 773.074 40.54 773.153 40.4901 773.231C40.4394 773.347 40.4048 773.464 40.4048 773.583C40.4048 773.699 40.4212 773.816 40.4901 773.894C40.5236 774.011 40.5571 774.05 40.6261 774.128L40.6086 774.712C40.3705 774.868 40.0491 775.103 39.7623 775.376C39.4397 775.648 39.1518 775.999 39.015 776.35C38.8974 776.701 38.8642 777.052 38.8642 777.364C38.8642 777.597 38.9312 777.832 38.9659 777.988C37.9665 778.651 36.731 779.547 35.6292 780.601C34.4939 781.692 33.4952 782.9 33.0039 784.226C31.7338 787.541 32.6985 790.816 33.1041 791.83H32.8855C32.6654 791.83 32.4963 792.025 32.4963 792.297C32.4963 792.531 32.6654 792.726 32.8855 792.726H32.9697V793.857C31.1583 790.251 25.0333 789.717 22.9809 794.697L22.9538 789.159H23.1542C23.4802 789.159 23.7475 788.845 23.7475 788.471C23.7475 788.096 23.4806 787.787 23.1542 787.787H22.9439L22.8959 778.256H23.1542C23.4417 778.256 23.6809 777.986 23.6809 777.65C23.6809 777.358 23.5034 777.115 23.2696 777.055V774.201H23.4988C23.6436 774.201 23.7673 774.057 23.7673 773.881C23.7673 773.711 23.6436 773.572 23.4988 773.572H23.1881C23.337 773.06 23.5285 772.08 23.1454 771.082C22.963 770.619 22.6099 770.179 22.1978 769.793C21.8052 769.419 21.3645 769.099 21.0111 768.868C21.0252 768.802 21.0396 768.725 21.0446 768.63C21.0488 768.515 21.0396 768.393 20.9916 768.274C20.9437 768.141 20.8389 768.019 20.7231 767.92C20.6188 767.826 20.5034 767.749 20.4219 767.694L20.4169 767.479C20.4364 767.457 20.4558 767.429 20.4653 767.402C20.484 767.364 20.4939 767.325 20.4939 767.287C20.4939 767.241 20.484 767.192 20.4653 767.16C20.4459 767.127 20.4265 767.104 20.3979 767.082L20.3884 766.895C20.4074 766.878 20.4219 766.857 20.4318 766.829C20.4459 766.807 20.4558 766.774 20.4558 766.741C20.4558 766.708 20.4463 766.67 20.4268 766.642C20.4173 766.62 20.3983 766.597 20.3788 766.575L20.3697 766.377L20.3126 764.868C20.3126 764.851 20.3031 764.835 20.2836 764.835C20.2642 764.835 20.2547 764.846 20.2501 764.868L20.193 766.377L20.1877 766.575C20.164 766.598 20.1454 766.62 20.1347 766.642C20.1168 766.67 20.1111 766.708 20.1111 766.741C20.1111 766.774 20.1168 766.807 20.1305 766.829C20.1397 766.857 20.1591 766.878 20.1682 766.895L20.164 767.082C20.14 767.104 20.1111 767.127 20.1012 767.16C20.0776 767.192 20.0681 767.242 20.0681 767.287C20.0681 767.325 20.0776 767.364 20.097 767.402C20.1061 767.429 20.1305 767.457 20.1499 767.479L20.14 767.694C20.054 767.749 19.939 767.826 19.8388 767.92C19.7234 768.019 19.6186 768.141 19.5756 768.274C19.5227 768.393 19.5132 768.515 19.5185 768.63C19.5185 768.725 19.5371 768.802 19.5566 768.868C19.1978 769.099 18.7575 769.419 18.3595 769.793C17.957 770.179 17.594 770.619 17.4169 771.082C17.0387 772.08 17.2208 773.06 17.3739 773.572H17.1153C16.9622 773.572 16.838 773.711 16.838 773.881C16.838 774.057 16.9618 774.201 17.1153 774.201H17.3255V777.055C17.0955 777.121 16.9233 777.363 16.9233 777.65C16.9233 777.986 17.1682 778.256 17.4592 778.256H17.7079L17.6607 787.787H17.4592C17.129 787.787 16.8563 788.096 16.8563 788.471C16.8563 788.845 17.129 789.159 17.4592 789.159H17.6607L17.6123 797.639C15.2491 792.009 10.4068 788.024 4.71373 787.55V786.886C4.71373 786.779 4.67717 786.674 4.61052 786.598C4.54349 786.521 4.45551 786.479 4.36067 786.479H4.06894L4 784.412V855.04H317.777V817.271V816.26H315.773C315.943 815.631 316.058 814.976 316.058 814.284ZM21.2784 775.919V777.037H19.3155V775.919C19.3155 775.919 19.306 775.831 19.3776 775.72C19.4545 775.61 19.421 775.523 19.392 775.412C19.1723 774.707 20.1823 774.741 20.3019 774.201C20.4165 774.741 21.4266 774.706 21.2118 775.412C21.1729 775.523 21.144 775.61 21.2205 775.72C21.2971 775.831 21.2784 775.919 21.2784 775.919ZM52.2263 749.483V747.418C52.2263 746.634 52.6864 745.976 53.3098 745.773C53.9367 745.976 54.3956 746.634 54.3956 747.418V749.436L54.3964 749.483H52.2263ZM81.7322 778.525H80.4727V775.31C80.4727 774.267 80.7378 773.392 81.0992 773.128C81.4648 773.392 81.7322 774.267 81.7322 775.31V778.525ZM82.2083 778.521V775.488C82.2083 774.338 82.8839 773.369 83.7995 773.073C84.72 773.369 85.3941 774.338 85.3941 775.488V778.452L85.3953 778.521H82.2083ZM87.2516 778.535H85.9925V775.311C85.9925 774.268 86.2576 773.393 86.6232 773.129C86.9854 773.393 87.2512 774.268 87.2512 775.311V778.535H87.2516ZM168.923 778.535H167.664V775.311C167.664 774.268 167.93 773.393 168.292 773.129C168.658 773.393 168.923 774.268 168.923 775.311V778.535H168.923ZM172.708 778.521H169.521L169.522 778.452V775.488C169.522 774.338 170.197 773.369 171.117 773.073C172.032 773.369 172.708 774.338 172.708 775.488V778.521H172.708ZM174.443 778.525H173.183V775.31C173.183 774.267 173.451 773.392 173.816 773.128C174.178 773.392 174.443 774.267 174.443 775.31V778.525ZM202.69 749.483H200.52L200.521 749.436V747.418C200.521 746.634 200.98 745.976 201.606 745.773C202.23 745.976 202.69 746.634 202.69 747.418V749.483H202.69ZM235.6 775.919V777.037H233.637V775.919C233.637 775.919 233.619 775.831 233.695 775.72C233.772 775.61 233.743 775.523 233.704 775.412C233.489 774.707 234.499 774.741 234.614 774.201C234.734 774.741 235.744 774.706 235.524 775.412C235.495 775.523 235.461 775.61 235.539 775.72C235.61 775.831 235.6 775.919 235.6 775.919ZM298.672 812.086H297.413V808.062C297.413 807.019 297.679 806.143 298.041 805.88C298.406 806.143 298.672 807.019 298.672 808.062L298.672 812.086ZM302.39 812.155H299.975V812.086H299.205V807.627C299.205 806.477 299.879 805.508 300.799 805.212C301.714 805.508 302.39 806.477 302.39 807.627L302.39 812.155ZM304.192 812.155H302.932V808.062C302.932 807.019 303.2 806.143 303.565 805.88C303.927 806.143 304.192 807.019 304.192 808.062V812.155Z" fill="#00133F"/>
<path opacity="0.3" fill-rule="evenodd" clip-rule="evenodd" d="M4 777.199V779.569C5.20732 778.921 6.13586 777.646 6.38342 776.023C6.68963 774.012 5.87116 772.076 4.45551 771.061C5.06069 772.07 5.33224 773.343 5.13382 774.65C4.98262 775.65 4.57319 776.523 4 777.199Z" fill="#00133F"/>
<path opacity="0.3" fill-rule="evenodd" clip-rule="evenodd" d="M394 757.271C393.679 757.116 393.361 756.962 393.033 756.81C385.038 753.11 381.074 748.082 379.133 744.39C380.995 743.454 382.297 741.32 382.297 738.833C382.297 735.87 380.449 733.408 378.01 732.878L377.923 730.203C378.597 729.865 379.069 729.094 379.069 728.194C379.069 727.238 378.534 726.433 377.791 726.134L377.585 719.716C379.947 720.3 382.465 720.2 384.917 719.249C388.6 717.818 391.402 714.797 392.974 711.074C391.662 712.367 390.125 713.393 388.391 714.067C381.131 716.884 373.251 712.39 370.801 704.034C369.586 699.893 369.925 695.591 371.458 691.96C367.282 696.079 365.458 702.844 367.327 709.216C368.877 714.51 372.613 718.246 376.986 719.562L376.646 726.095C375.848 726.356 375.26 727.192 375.26 728.194C375.26 729.105 375.743 729.886 376.431 730.217L376.294 732.834C373.732 733.246 371.759 735.77 371.759 738.833C371.759 741.428 373.178 743.636 375.169 744.502C373.208 748.182 369.242 753.148 361.328 756.81C346.846 763.509 340.451 772.312 338.471 782.86V781.847C338.658 781.692 338.81 781.458 338.81 781.146C338.81 780.717 338.54 780.327 338.201 780.249V775.92H338.54C338.759 775.92 338.946 775.688 338.946 775.454C338.946 775.18 338.759 774.987 338.54 774.987H338.066C338.303 774.206 338.574 772.724 337.998 771.204C337.726 770.501 337.185 769.838 336.574 769.255C335.966 768.669 335.304 768.201 334.779 767.851C334.797 767.773 334.813 767.616 334.813 767.499C334.831 767.344 334.813 767.149 334.747 766.954C334.661 766.759 334.507 766.564 334.339 766.408C334.17 766.292 334.001 766.135 333.882 766.057L333.865 765.745C333.898 765.706 333.933 765.667 333.95 765.628C333.967 765.588 334.001 765.51 334.001 765.472C334.001 765.394 333.967 765.316 333.933 765.278C333.916 765.199 333.882 765.161 333.831 765.161V764.848C333.865 764.848 333.882 764.809 333.898 764.77C333.916 764.731 333.933 764.691 333.933 764.615C333.933 764.575 333.916 764.536 333.898 764.497C333.865 764.458 333.849 764.418 333.814 764.38L333.798 764.068L333.713 761.807C333.713 761.768 333.694 761.728 333.662 761.728C333.645 761.728 333.627 761.768 333.627 761.807L333.527 764.068V764.38C333.492 764.418 333.458 764.458 333.441 764.497C333.424 764.536 333.407 764.575 333.407 764.615C333.407 764.691 333.424 764.731 333.441 764.77C333.458 764.809 333.475 764.848 333.492 764.848V765.161C333.458 765.161 333.424 765.199 333.391 765.278C333.357 765.316 333.34 765.395 333.34 765.472C333.34 765.511 333.357 765.589 333.391 765.628C333.391 765.667 333.424 765.706 333.458 765.745V766.057C333.322 766.135 333.153 766.292 333.001 766.408C332.815 766.564 332.68 766.759 332.594 766.954C332.509 767.149 332.509 767.306 332.509 767.499C332.509 767.616 332.543 767.773 332.577 767.851C332.019 768.201 331.359 768.669 330.749 769.255C330.139 769.838 329.597 770.502 329.327 771.204C328.75 772.724 329.037 774.206 329.258 774.987H328.868C328.649 774.987 328.462 775.18 328.462 775.454C328.462 775.688 328.649 775.92 328.868 775.92H329.19V780.249C328.852 780.327 328.58 780.717 328.58 781.146C328.58 781.458 328.75 781.691 328.953 781.847V785.357H327.276V780.717H324.956V779.587H325.159C325.363 779.587 325.533 779.391 325.533 779.157C325.533 778.885 325.363 778.69 325.159 778.69H324.956C325.329 777.676 326.311 774.4 325.042 771.087C324.55 769.761 323.552 768.552 322.415 767.461C321.298 766.408 320.078 765.511 319.08 764.848C319.13 764.692 319.164 764.458 319.181 764.185C319.197 763.912 319.164 763.562 319.028 763.211C318.893 762.86 318.589 762.508 318.284 762.235C317.979 761.962 317.673 761.729 317.435 761.572L317.402 760.988C317.47 760.91 317.538 760.871 317.572 760.754C317.606 760.676 317.639 760.559 317.639 760.441C317.639 760.324 317.606 760.208 317.555 760.091C317.504 760.013 317.435 759.935 317.369 759.896L317.351 759.351C317.402 759.311 317.435 759.233 317.47 759.194C317.505 759.116 317.522 759.039 317.522 758.921C317.522 758.844 317.505 758.727 317.453 758.648C317.419 758.571 317.369 758.531 317.317 758.493L317.301 757.908L317.131 753.697C317.131 753.658 317.098 753.618 317.047 753.58C316.996 753.58 316.962 753.618 316.962 753.697L316.793 757.908L316.775 758.493C316.725 758.531 316.657 758.571 316.624 758.648C316.589 758.727 316.556 758.844 316.556 758.921C316.556 759.039 316.589 759.116 316.624 759.194C316.657 759.234 316.692 759.312 316.742 759.351L316.725 759.896C316.64 759.935 316.59 760.014 316.521 760.091C316.488 760.208 316.454 760.324 316.454 760.441C316.454 760.559 316.488 760.676 316.521 760.754C316.556 760.871 316.608 760.91 316.674 760.988L316.657 761.572C316.42 761.728 316.097 761.962 315.811 762.235C315.488 762.508 315.2 762.86 315.066 763.211C314.93 763.562 314.897 763.912 314.897 764.185C314.93 764.458 314.964 764.691 315.013 764.848C314.015 765.511 312.779 766.408 311.678 767.461C310.543 768.552 309.543 769.761 309.036 771.087C307.783 774.4 308.748 777.676 309.138 778.69H308.934C308.731 778.69 308.545 778.885 308.545 779.157C308.545 779.391 308.731 779.587 308.934 779.587H309.02V780.717H306.818V785.357H305.852L305.835 773.777H306.361C306.715 773.777 307.004 773.425 307.004 773.036C307.004 772.608 306.714 772.296 306.361 772.296H305.819L305.768 761.184H305.954C306.258 761.184 306.529 760.91 306.529 760.559C306.529 760.17 306.258 759.896 305.954 759.896H305.75L305.716 750.89H305.954C306.225 750.89 306.462 750.618 306.462 750.306C306.462 750.032 306.292 749.798 306.072 749.76V747.965L306.09 747.888C306.072 747.849 306.072 747.81 306.072 747.77V747.03H306.276C306.428 747.03 306.529 746.913 306.529 746.757C306.529 746.601 306.428 746.445 306.276 746.445H305.986C306.122 745.977 306.308 745.042 305.954 744.106C305.785 743.677 305.445 743.248 305.058 742.897C304.684 742.508 304.26 742.234 303.921 742C303.939 741.962 303.956 741.883 303.956 741.766C303.956 741.688 303.956 741.572 303.921 741.454C303.853 741.298 303.769 741.182 303.651 741.103C303.549 741.026 303.447 740.948 303.38 740.909L303.363 740.675C303.38 740.675 303.412 740.636 303.412 740.597C303.431 740.597 303.447 740.558 303.447 740.519C303.447 740.48 303.431 740.44 303.412 740.402C303.396 740.362 303.38 740.323 303.345 740.323V740.129C303.363 740.129 303.38 740.09 303.38 740.09C303.396 740.05 303.412 740.011 303.412 739.972C303.412 739.972 303.396 739.933 303.38 739.894C303.38 739.856 303.345 739.856 303.328 739.856V739.661L303.277 738.218C303.277 738.218 303.261 738.179 303.245 738.179C303.227 738.179 303.21 738.218 303.21 738.218L303.159 739.661L303.141 739.856C303.125 739.856 303.109 739.856 303.109 739.894C303.074 739.933 303.074 739.972 303.074 739.972C303.074 740.011 303.074 740.05 303.09 740.09C303.109 740.09 303.109 740.129 303.141 740.129V740.323C303.109 740.323 303.074 740.362 303.074 740.402C303.041 740.44 303.041 740.48 303.041 740.519C303.041 740.558 303.041 740.597 303.074 740.597C303.074 740.636 303.09 740.675 303.109 740.675V740.909C303.024 740.948 302.921 741.026 302.82 741.103C302.701 741.182 302.617 741.298 302.567 741.454C302.532 741.572 302.515 741.688 302.515 741.766C302.515 741.884 302.532 741.962 302.549 742C302.211 742.234 301.787 742.508 301.414 742.897C301.042 743.248 300.703 743.677 300.533 744.106C300.162 745.042 300.347 745.977 300.482 746.445H300.246C300.094 746.445 299.991 746.6 299.991 746.757C299.991 746.913 300.094 747.03 300.246 747.03H300.45V749.76C300.23 749.798 300.06 750.032 300.06 750.306C300.06 750.618 300.296 750.89 300.567 750.89H300.804L300.772 759.896H300.567C300.263 759.896 299.991 760.17 299.991 760.559C299.991 760.91 300.263 761.184 300.567 761.184H300.753L300.703 772.296H300.162C299.805 772.296 299.518 772.608 299.518 773.036C299.518 773.426 299.805 773.777 300.162 773.777H300.703L300.668 793.857H298.841V792.726H299.026C299.247 792.726 299.416 792.531 299.416 792.297C299.416 792.024 299.247 791.829 299.026 791.829H298.825C299.213 790.815 300.195 787.541 298.925 784.226C298.433 782.9 297.417 781.692 296.282 780.601C295.182 779.547 293.963 778.651 292.946 777.987C292.997 777.832 293.049 777.597 293.049 777.364C293.065 777.051 293.032 776.701 292.913 776.35C292.76 775.999 292.472 775.648 292.167 775.375C291.862 775.102 291.558 774.868 291.32 774.712L291.286 774.128C291.354 774.05 291.405 774.01 291.439 773.893C291.49 773.815 291.524 773.698 291.524 773.582C291.524 773.464 291.49 773.347 291.422 773.23C291.388 773.152 291.32 773.074 291.254 773.035L291.219 772.489C291.27 772.451 291.32 772.372 291.338 772.333C291.389 772.255 291.389 772.178 291.389 772.061C291.389 771.983 291.371 771.865 291.32 771.788C291.286 771.71 291.254 771.672 291.185 771.632L291.169 771.048L291 766.837C291 766.798 290.965 766.759 290.913 766.719C290.88 766.719 290.846 766.759 290.846 766.837L290.677 771.048L290.642 771.632C290.592 771.672 290.542 771.711 290.508 771.788C290.473 771.865 290.439 771.983 290.439 772.061C290.439 772.178 290.456 772.255 290.508 772.333C290.525 772.373 290.577 772.451 290.609 772.489L290.592 773.035C290.508 773.074 290.456 773.153 290.406 773.23C290.356 773.347 290.321 773.464 290.321 773.582C290.321 773.698 290.337 773.815 290.406 773.893C290.44 774.011 290.473 774.05 290.542 774.128L290.525 774.712C290.287 774.867 289.965 775.102 289.678 775.375C289.356 775.648 289.068 775.999 288.931 776.35C288.814 776.701 288.78 777.051 288.78 777.364C288.78 777.597 288.847 777.831 288.882 777.987C287.883 778.651 286.647 779.547 285.545 780.601C284.41 781.691 283.411 782.899 282.92 784.226C281.65 787.541 282.615 790.815 283.02 791.829H282.802C282.582 791.829 282.412 792.024 282.412 792.297C282.412 792.53 282.582 792.726 282.802 792.726H282.886V793.857C281.074 790.25 274.95 789.716 272.897 794.697L272.87 789.159H273.07C273.396 789.159 273.664 788.844 273.664 788.47C273.664 788.096 273.397 787.786 273.07 787.786H272.86L272.812 778.256H273.07C273.358 778.256 273.597 777.985 273.597 777.649C273.597 777.357 273.42 777.115 273.186 777.054V774.201H273.415C273.56 774.201 273.684 774.057 273.684 773.881C273.684 773.71 273.56 773.572 273.415 773.572H273.104C273.253 773.06 273.445 772.08 273.062 771.082C272.879 770.618 272.526 770.178 272.114 769.793C271.721 769.418 271.281 769.098 270.927 768.867C270.941 768.801 270.956 768.724 270.961 768.63C270.965 768.514 270.956 768.393 270.908 768.273C270.86 768.14 270.755 768.019 270.639 767.919C270.535 767.826 270.42 767.749 270.338 767.694L270.333 767.478C270.353 767.457 270.372 767.429 270.381 767.401C270.4 767.363 270.41 767.325 270.41 767.286C270.41 767.241 270.4 767.192 270.381 767.16C270.362 767.126 270.343 767.104 270.314 767.082L270.305 766.895C270.324 766.878 270.338 766.856 270.348 766.828C270.362 766.807 270.372 766.773 270.372 766.74C270.372 766.708 270.362 766.669 270.343 766.641C270.333 766.619 270.314 766.597 270.295 766.575L270.286 766.376L270.229 764.868C270.229 764.851 270.219 764.834 270.2 764.834C270.18 764.834 270.171 764.845 270.166 764.868L270.109 766.376L270.104 766.575C270.08 766.597 270.062 766.62 270.051 766.641C270.033 766.669 270.027 766.707 270.027 766.74C270.027 766.773 270.033 766.807 270.047 766.828C270.056 766.856 270.075 766.878 270.084 766.895L270.08 767.082C270.056 767.104 270.027 767.126 270.017 767.16C269.994 767.192 269.984 767.241 269.984 767.286C269.984 767.325 269.994 767.363 270.013 767.401C270.022 767.429 270.047 767.457 270.066 767.478L270.056 767.694C269.97 767.749 269.855 767.826 269.755 767.919C269.64 768.019 269.535 768.14 269.492 768.273C269.439 768.393 269.429 768.515 269.435 768.63C269.435 768.724 269.453 768.801 269.473 768.867C269.114 769.098 268.674 769.419 268.276 769.793C267.873 770.179 267.51 770.619 267.333 771.082C266.955 772.079 267.137 773.06 267.29 773.572H267.031C266.878 773.572 266.754 773.71 266.754 773.881C266.754 774.056 266.878 774.201 267.031 774.201H267.242V777.054C267.012 777.12 266.839 777.363 266.839 777.649C266.839 777.985 267.084 778.256 267.375 778.256H267.624L267.577 787.786H267.375C267.045 787.786 266.772 788.095 266.772 788.47C266.772 788.845 267.045 789.159 267.375 789.159H267.577L267.528 797.639C265.165 792.008 260.323 788.023 254.63 787.55V786.885C254.63 786.778 254.593 786.674 254.527 786.598C254.46 786.52 254.372 786.479 254.277 786.479H253.987L253.759 779.659C255.045 779.042 256.043 777.718 256.301 776.023C256.607 774.012 255.789 772.076 254.373 771.061C254.978 772.07 255.25 773.343 255.052 774.65C254.651 777.289 252.461 779.056 250.171 778.593C249.622 778.483 249.12 778.255 248.673 777.937C249.294 778.972 250.259 779.731 251.422 779.966C252.143 780.112 252.844 780.015 253.493 779.761L253.26 786.479H252.977C252.777 786.479 252.613 786.667 252.613 786.897V787.536C246.473 787.933 241.293 792.411 239.079 798.661C238.77 798.253 238.407 797.866 238.024 797.497C237.281 796.785 236.457 796.179 235.77 795.731C235.804 795.626 235.839 795.467 235.839 795.31C235.85 795.1 235.828 794.862 235.748 794.625C235.644 794.388 235.45 794.151 235.244 793.966C235.038 793.781 234.832 793.624 234.671 793.518L234.648 793.123C234.694 793.071 234.728 793.045 234.752 792.965C234.786 792.913 234.809 792.833 234.809 792.755C234.809 792.675 234.786 792.596 234.739 792.517C234.717 792.465 234.671 792.412 234.626 792.385L234.602 792.016C234.636 791.99 234.671 791.937 234.683 791.911C234.717 791.858 234.717 791.806 234.717 791.727C234.717 791.674 234.705 791.594 234.671 791.543C234.647 791.49 234.626 791.464 234.579 791.437L234.568 791.042L234.454 788.197C234.454 788.17 234.43 788.145 234.396 788.117C234.373 788.117 234.351 788.145 234.351 788.197L234.236 791.042L234.212 791.437C234.179 791.464 234.145 791.49 234.122 791.543C234.098 791.594 234.076 791.674 234.076 791.727C234.076 791.806 234.087 791.858 234.122 791.911C234.133 791.938 234.168 791.991 234.19 792.016L234.179 792.385C234.122 792.412 234.087 792.465 234.053 792.517C234.019 792.596 233.996 792.675 233.996 792.755C233.996 792.833 234.007 792.913 234.053 792.965C234.076 793.045 234.099 793.071 234.145 793.123L234.134 793.518C233.973 793.624 233.756 793.782 233.562 793.966C233.344 794.151 233.149 794.388 233.057 794.625C232.977 794.862 232.954 795.099 232.954 795.31C232.954 795.467 233 795.626 233.023 795.731C232.349 796.179 231.513 796.785 230.769 797.497C230.001 798.235 229.327 799.051 228.995 799.947C228.783 800.499 228.664 801.049 228.608 801.575C226.38 800.579 224.496 799.316 222.988 797.839C223.051 797.698 223.096 797.546 223.096 797.374C223.096 796.956 222.874 796.595 222.557 796.436L222.332 792.384H222.068L221.841 796.436C221.524 796.595 221.306 796.956 221.306 797.374C221.306 797.546 221.347 797.697 221.412 797.839C219.766 799.442 217.652 800.823 215.171 801.848C211.36 803.418 208.816 806.23 208.816 809.443C208.816 810.362 209.027 811.253 209.412 812.086H207.922V804.69H208.011C208.264 804.69 208.47 804.455 208.47 804.162V803.863C208.47 803.574 208.264 803.335 208.011 803.335H207.41C207.435 803.139 207.452 802.945 207.452 802.738C207.452 801.327 206.803 800.088 205.831 799.398C205.226 798.971 204.711 798.416 204.304 797.761C204.382 797.678 204.427 797.559 204.427 797.429C204.427 797.246 204.332 797.084 204.192 797.017L204.091 795.232H203.976L203.877 797.017C203.737 797.084 203.641 797.246 203.641 797.429C203.641 797.559 203.688 797.677 203.765 797.761C203.354 798.413 202.837 798.972 202.24 799.398C201.267 800.088 200.616 801.327 200.616 802.738C200.616 802.946 200.633 803.139 200.662 803.335H200.04C199.787 803.335 199.584 803.574 199.584 803.863V804.162C199.584 804.455 199.787 804.69 200.04 804.69H200.144V812.445C199.629 810.393 198.286 808.75 196.549 808.024C196.551 807.99 196.557 807.959 196.557 807.925C196.557 806.938 196.01 806.108 195.248 805.789L194.968 804.815C195.024 804.726 195.061 804.624 195.061 804.509C195.061 804.285 194.942 804.097 194.777 804.008L194.603 800.935C194.603 800.922 194.589 800.911 194.574 800.911C194.565 800.911 194.551 800.921 194.551 800.935L194.378 804.008C194.214 804.097 194.095 804.285 194.095 804.509C194.095 804.624 194.132 804.725 194.183 804.813L193.906 805.789C193.144 806.108 192.598 806.94 192.598 807.925C192.598 807.958 192.605 807.99 192.605 808.024C190.376 808.955 188.773 811.393 188.773 814.283C188.773 814.975 188.889 815.631 189.059 816.26H187.055V817.271H186.85V855.04H394V757.271ZM201.901 812.155H200.641V808.062C200.641 807.019 200.906 806.143 201.268 805.88C201.633 806.143 201.901 807.019 201.901 808.062V812.155ZM205.629 812.086H204.858V812.155H202.443V807.627C202.443 806.477 203.119 805.508 204.034 805.212C204.955 805.508 205.629 806.477 205.629 807.627L205.629 812.086ZM207.42 812.086H206.161V808.062C206.161 807.019 206.426 806.143 206.792 805.88C207.154 806.143 207.42 807.019 207.42 808.062V812.086H207.42ZM271.195 775.919V777.037H269.232V775.919C269.232 775.919 269.223 775.831 269.294 775.72C269.371 775.61 269.338 775.523 269.309 775.412C269.089 774.707 270.099 774.741 270.219 774.201C270.333 774.741 271.344 774.706 271.129 775.412C271.09 775.523 271.061 775.61 271.137 775.72C271.214 775.831 271.195 775.919 271.195 775.919ZM302.144 749.483V747.418C302.144 746.634 302.604 745.976 303.227 745.773C303.854 745.976 304.313 746.634 304.313 747.418V749.436L304.314 749.483H302.144ZM331.65 778.525H330.39V775.31C330.39 774.267 330.655 773.392 331.017 773.128C331.382 773.392 331.65 774.267 331.65 775.31V778.525ZM332.126 778.521V775.488C332.126 774.338 332.801 773.369 333.717 773.073C334.637 773.369 335.311 774.338 335.311 775.488V778.452L335.313 778.521H332.126ZM337.169 778.535H335.91V775.311C335.91 774.268 336.175 773.393 336.54 773.129C336.903 773.393 337.169 774.268 337.169 775.311V778.535H337.169Z" fill="#00133F"/>
<path fill-rule="evenodd" clip-rule="evenodd" d="M391.948 817.288C392.122 816.644 392.241 815.973 392.241 815.264C392.241 812.304 390.599 809.807 388.317 808.853C388.317 808.82 388.324 808.787 388.324 808.753C388.324 807.744 387.765 806.892 386.985 806.566L386.701 805.566C386.754 805.477 386.791 805.373 386.791 805.255C386.791 805.026 386.669 804.833 386.501 804.742L386.324 801.596C386.324 801.582 386.31 801.571 386.3 801.571C386.285 801.571 386.27 801.581 386.27 801.596L386.093 804.742C385.924 804.833 385.801 805.026 385.801 805.255C385.801 805.373 385.84 805.478 385.896 805.569L385.611 806.566C384.829 806.892 384.269 807.742 384.269 808.753C384.269 808.787 384.275 808.82 384.277 808.853C382.499 809.597 381.124 811.28 380.596 813.382V805.439H380.702C380.961 805.439 381.17 805.199 381.17 804.899V804.592C381.17 804.297 380.961 804.053 380.702 804.053H380.066C380.095 803.852 380.112 803.654 380.112 803.441C380.112 801.997 379.446 800.728 378.449 800.021C377.838 799.584 377.309 799.012 376.888 798.344C376.966 798.259 377.015 798.138 377.015 798.005C377.015 797.817 376.917 797.651 376.773 797.582L376.671 795.755H376.553L376.451 797.582C376.307 797.651 376.21 797.817 376.21 798.005C376.21 798.138 376.256 798.259 376.335 798.344C375.919 799.014 375.391 799.583 374.772 800.021C373.777 800.728 373.112 801.997 373.112 803.441C373.112 803.654 373.13 803.852 373.155 804.053H372.54C372.28 804.053 372.07 804.297 372.07 804.592V804.899C372.07 805.199 372.281 805.439 372.54 805.439H372.631V813.012H371.105C371.5 812.16 371.715 811.248 371.715 810.306C371.715 807.017 369.111 804.137 365.208 802.529C362.668 801.479 360.503 800.065 358.818 798.423C358.883 798.278 358.926 798.123 358.926 797.948C358.926 797.519 358.702 797.15 358.378 796.987L358.146 792.838H357.876L357.646 796.987C357.321 797.15 357.093 797.519 357.093 797.948C357.093 798.123 357.139 798.278 357.203 798.423C355.659 799.935 353.73 801.229 351.449 802.25C351.392 801.71 351.27 801.147 351.054 800.582C350.713 799.664 350.022 798.829 349.236 798.072C348.474 797.345 347.619 796.723 346.928 796.265C346.951 796.157 346.998 795.995 346.998 795.834C346.998 795.618 346.975 795.375 346.894 795.133C346.8 794.889 346.6 794.646 346.377 794.458C346.178 794.268 345.956 794.107 345.791 793.998L345.779 793.594C345.827 793.541 345.85 793.513 345.874 793.432C345.921 793.379 345.932 793.297 345.932 793.217C345.932 793.136 345.908 793.054 345.874 792.973C345.839 792.92 345.803 792.865 345.745 792.838L345.733 792.46C345.756 792.434 345.791 792.38 345.804 792.352C345.839 792.298 345.851 792.245 345.851 792.163C345.851 792.109 345.827 792.028 345.804 791.976C345.779 791.92 345.745 791.894 345.711 791.866L345.686 791.462L345.569 788.548C345.569 788.495 345.546 788.467 345.524 788.467C345.487 788.495 345.463 788.522 345.463 788.548L345.347 791.462L345.335 791.866C345.288 791.894 345.265 791.92 345.242 791.976C345.206 792.028 345.193 792.109 345.193 792.163C345.193 792.245 345.193 792.298 345.229 792.352C345.242 792.38 345.276 792.434 345.312 792.46L345.288 792.838C345.242 792.865 345.194 792.92 345.172 792.973C345.124 793.054 345.1 793.136 345.1 793.217C345.1 793.297 345.124 793.379 345.159 793.432C345.183 793.514 345.218 793.541 345.265 793.594L345.242 793.998C345.077 794.107 344.866 794.268 344.655 794.458C344.444 794.646 344.245 794.889 344.14 795.133C344.057 795.375 344.034 795.617 344.046 795.834C344.046 795.995 344.082 796.157 344.116 796.265C343.413 796.723 342.57 797.345 341.808 798.072C341.416 798.451 341.044 798.848 340.727 799.265C338.46 792.865 333.156 788.279 326.868 787.873V787.22C326.868 786.983 326.7 786.79 326.496 786.79H326.205L325.967 779.912C326.63 780.172 327.35 780.271 328.087 780.121C329.278 779.881 330.266 779.105 330.903 778.044C330.445 778.37 329.93 778.603 329.368 778.716C327.023 779.189 324.78 777.38 324.371 774.678C324.168 773.34 324.446 772.036 325.065 771.003C323.615 772.042 322.777 774.025 323.091 776.084C323.355 777.819 324.377 779.175 325.694 779.807L325.461 786.791H325.164C325.068 786.791 324.977 786.834 324.908 786.912C324.839 786.991 324.802 787.098 324.802 787.207V787.888C318.973 788.373 314.014 792.454 311.594 798.219L311.544 789.535H311.751C312.089 789.535 312.368 789.213 312.368 788.831C312.368 788.446 312.089 788.13 311.751 788.13H311.544L311.496 778.37H311.751C312.049 778.37 312.299 778.092 312.299 777.749C312.299 777.456 312.123 777.207 311.887 777.139V774.217H312.103C312.26 774.217 312.386 774.069 312.386 773.891C312.386 773.716 312.26 773.573 312.103 773.573H311.838C311.995 773.049 312.181 772.045 311.794 771.024C311.612 770.55 311.241 770.099 310.829 769.703C310.421 769.32 309.971 768.993 309.603 768.755C309.623 768.688 309.642 768.609 309.642 768.512C309.647 768.394 309.638 768.269 309.583 768.147C309.539 768.011 309.432 767.886 309.314 767.785C309.211 767.689 309.094 767.61 309.005 767.554L308.995 767.334C309.015 767.311 309.039 767.283 309.05 767.254C309.07 767.215 309.079 767.177 309.079 767.137C309.079 767.09 309.07 767.04 309.045 767.007C309.035 766.972 309.005 766.95 308.981 766.927L308.976 766.736C308.985 766.718 309.005 766.696 309.015 766.667C309.029 766.645 309.035 766.611 309.035 766.577C309.035 766.544 309.029 766.504 309.011 766.477C309 766.453 308.981 766.431 308.957 766.408L308.951 766.204L308.893 764.66C308.888 764.637 308.879 764.626 308.858 764.626C308.839 764.626 308.829 764.642 308.829 764.66L308.77 766.204L308.761 766.408C308.741 766.431 308.722 766.453 308.712 766.477C308.692 766.504 308.682 766.544 308.682 766.577C308.682 766.611 308.692 766.645 308.706 766.667C308.717 766.696 308.731 766.718 308.751 766.736L308.741 766.927C308.712 766.95 308.692 766.972 308.672 767.007C308.653 767.04 308.643 767.09 308.643 767.137C308.643 767.177 308.653 767.215 308.672 767.254C308.682 767.282 308.701 767.311 308.722 767.334L308.717 767.554C308.633 767.61 308.515 767.69 308.408 767.785C308.289 767.886 308.182 768.011 308.133 768.147C308.083 768.269 308.075 768.394 308.079 768.512C308.083 768.609 308.099 768.688 308.113 768.755C307.75 768.993 307.299 769.32 306.897 769.703C306.475 770.099 306.113 770.55 305.927 771.024C305.535 772.045 305.731 773.049 305.883 773.573H305.565C305.417 773.573 305.29 773.715 305.29 773.891C305.29 774.069 305.417 774.217 305.565 774.217H305.8V777.139C305.56 777.202 305.378 777.45 305.378 777.749C305.378 778.092 305.623 778.37 305.918 778.37H306.182L306.133 788.13H305.918C305.583 788.13 305.31 788.446 305.31 788.831C305.31 789.213 305.583 789.535 305.918 789.535H306.123L306.096 795.207C303.994 790.106 297.722 790.653 295.867 794.347V793.188H295.953C296.179 793.188 296.351 792.988 296.351 792.749C296.351 792.469 296.179 792.269 295.953 792.269H295.729C296.145 791.232 297.132 787.878 295.831 784.484C295.329 783.126 294.306 781.888 293.143 780.771C292.015 779.691 290.75 778.775 289.727 778.095C289.761 777.936 289.83 777.695 289.83 777.457C289.83 777.137 289.796 776.778 289.675 776.419C289.535 776.06 289.24 775.7 288.91 775.421C288.617 775.142 288.287 774.901 288.044 774.742L288.026 774.144C288.097 774.064 288.131 774.024 288.165 773.904C288.236 773.824 288.252 773.704 288.252 773.585C288.252 773.464 288.217 773.344 288.165 773.225C288.114 773.145 288.061 773.065 287.975 773.025L287.957 772.466C287.991 772.426 288.044 772.347 288.061 772.306C288.114 772.226 288.131 772.147 288.131 772.027C288.131 771.948 288.097 771.826 288.061 771.748C288.026 771.668 287.975 771.628 287.923 771.588L287.888 770.99L287.714 766.677C287.714 766.597 287.68 766.557 287.646 766.557C287.593 766.598 287.558 766.638 287.558 766.677L287.384 770.99L287.368 771.588C287.297 771.628 287.264 771.668 287.229 771.748C287.177 771.826 287.159 771.948 287.159 772.027C287.159 772.147 287.159 772.226 287.211 772.306C287.229 772.347 287.281 772.426 287.333 772.466L287.297 773.025C287.229 773.065 287.159 773.145 287.125 773.225C287.055 773.344 287.02 773.464 287.02 773.585C287.02 773.703 287.056 773.824 287.107 773.904C287.143 774.023 287.195 774.064 287.264 774.144L287.229 774.742C286.986 774.901 286.674 775.142 286.363 775.421C286.051 775.701 285.755 776.06 285.599 776.419C285.477 776.778 285.443 777.137 285.459 777.457C285.459 777.695 285.512 777.936 285.564 778.095C284.523 778.775 283.274 779.692 282.149 780.771C280.986 781.888 279.945 783.126 279.441 784.484C278.141 787.878 279.147 791.232 279.544 792.269H279.338C279.111 792.269 278.938 792.469 278.938 792.749C278.938 792.988 279.111 793.188 279.338 793.188H279.528V794.347H277.656L277.621 773.783H278.175C278.54 773.783 278.834 773.424 278.834 773.025C278.834 772.587 278.54 772.267 278.175 772.267H277.621L277.569 760.888H277.76C278.072 760.888 278.35 760.608 278.35 760.249C278.35 759.85 278.072 759.57 277.76 759.57H277.55L277.517 750.347H277.76C278.038 750.347 278.28 750.068 278.28 749.748C278.28 749.469 278.105 749.229 277.88 749.19V746.395H278.089C278.245 746.395 278.35 746.275 278.35 746.115C278.35 745.955 278.245 745.795 278.089 745.795H277.847C277.984 745.316 278.175 744.358 277.795 743.401C277.62 742.961 277.273 742.521 276.892 742.163C276.51 741.764 276.076 741.483 275.73 741.244C275.747 741.204 275.765 741.124 275.765 741.004C275.765 740.924 275.747 740.806 275.711 740.684C275.659 740.525 275.574 740.405 275.452 740.325C275.349 740.246 275.243 740.167 275.156 740.126V739.886C275.175 739.886 275.192 739.847 275.192 739.806C275.226 739.806 275.226 739.766 275.226 739.726C275.226 739.687 275.226 739.646 275.192 739.607C275.192 739.567 275.156 739.527 275.123 739.527V739.327C275.156 739.327 275.156 739.288 275.175 739.288C275.192 739.247 275.192 739.207 275.192 739.167C275.192 739.167 275.192 739.128 275.156 739.087C275.156 739.048 275.14 739.048 275.123 739.048L275.106 738.848L275.052 737.371C275.052 737.371 275.035 737.331 275.017 737.331C275 737.331 274.984 737.371 274.984 737.371L274.932 738.848V739.048C274.914 739.048 274.879 739.048 274.879 739.087C274.862 739.128 274.845 739.167 274.845 739.167C274.845 739.207 274.862 739.247 274.879 739.288C274.879 739.288 274.896 739.327 274.914 739.327V739.527C274.879 739.527 274.862 739.567 274.845 739.607C274.826 739.646 274.81 739.687 274.81 739.726C274.81 739.766 274.826 739.806 274.845 739.806C274.845 739.847 274.879 739.886 274.896 739.886L274.879 740.126C274.81 740.167 274.706 740.246 274.602 740.325C274.48 740.406 274.393 740.525 274.324 740.684C274.289 740.805 274.289 740.924 274.289 741.004C274.289 741.124 274.306 741.204 274.324 741.244C273.977 741.483 273.543 741.764 273.16 742.163C272.763 742.521 272.415 742.961 272.242 743.401C271.88 744.358 272.07 745.316 272.209 745.795H271.913C271.756 745.795 271.653 745.955 271.653 746.115C271.653 746.275 271.756 746.395 271.913 746.395H272.122V747.153C272.122 747.193 272.122 747.233 272.103 747.273L272.122 747.352V749.19C271.897 749.229 271.722 749.469 271.722 749.748C271.722 750.068 271.965 750.347 272.242 750.347H272.486L272.451 759.57H272.242C271.931 759.57 271.653 759.85 271.653 760.249C271.653 760.608 271.931 760.888 272.242 760.888H272.433L272.381 772.267H271.825C271.464 772.267 271.167 772.587 271.167 773.025C271.167 773.424 271.464 773.783 271.825 773.783H272.365L272.346 785.642H271.357V780.891H269.102V779.733H269.19C269.398 779.733 269.589 779.533 269.589 779.293C269.589 779.014 269.398 778.815 269.19 778.815H268.982C269.38 777.776 270.368 774.421 269.085 771.028C268.566 769.671 267.543 768.433 266.38 767.316C265.252 766.238 263.987 765.318 262.964 764.64C263.015 764.479 263.05 764.241 263.084 763.961C263.084 763.682 263.049 763.323 262.91 762.963C262.772 762.604 262.477 762.244 262.147 761.965C261.853 761.685 261.523 761.445 261.281 761.286L261.263 760.688C261.332 760.607 261.384 760.569 261.42 760.448C261.454 760.368 261.489 760.248 261.489 760.128C261.489 760.007 261.454 759.888 261.42 759.769C261.35 759.689 261.299 759.61 261.211 759.569L261.194 759.011C261.246 758.971 261.281 758.891 261.315 758.85C261.35 758.771 261.384 758.691 261.384 758.571C261.384 758.491 261.35 758.372 261.315 758.291C261.28 758.212 261.211 758.172 261.16 758.132L261.141 757.534L260.968 753.222C260.968 753.141 260.934 753.102 260.882 753.102C260.829 753.142 260.796 753.182 260.796 753.222L260.621 757.534L260.605 758.132C260.551 758.172 260.5 758.213 260.465 758.291C260.412 758.372 260.395 758.491 260.395 758.571C260.395 758.69 260.412 758.771 260.448 758.85C260.484 758.891 260.518 758.971 260.569 759.011L260.551 759.569C260.483 759.61 260.412 759.689 260.361 759.769C260.309 759.888 260.274 760.007 260.274 760.128C260.274 760.247 260.309 760.368 260.343 760.448C260.378 760.568 260.447 760.607 260.517 760.688L260.483 761.286C260.24 761.445 259.926 761.685 259.614 761.965C259.302 762.244 258.99 762.604 258.852 762.963C258.713 763.323 258.679 763.682 258.695 763.961C258.713 764.241 258.747 764.479 258.799 764.64C257.777 765.318 256.528 766.238 255.383 767.316C254.22 768.433 253.198 769.671 252.694 771.028C251.395 774.421 252.4 777.776 252.781 778.815H252.574C252.365 778.815 252.191 779.014 252.191 779.293C252.191 779.533 252.365 779.733 252.574 779.733H252.781V780.891H250.406V785.642H248.689V782.049C248.897 781.889 249.071 781.65 249.071 781.33C249.071 780.891 248.793 780.491 248.446 780.412V775.979H248.776C249 775.979 249.191 775.74 249.191 775.502C249.191 775.221 249 775.022 248.776 775.022H248.377C248.603 774.223 248.896 772.705 248.306 771.149C248.028 770.429 247.473 769.75 246.85 769.153C246.225 768.553 245.549 768.073 244.977 767.715C245.013 767.635 245.047 767.474 245.047 767.355C245.047 767.157 245.047 766.997 244.959 766.797C244.872 766.598 244.734 766.398 244.543 766.239C244.387 766.119 244.214 765.958 244.075 765.879V765.56C244.11 765.519 244.144 765.48 244.144 765.44C244.179 765.399 244.196 765.319 244.196 765.28C244.196 765.2 244.179 765.119 244.144 765.081C244.11 765 244.075 764.961 244.04 764.961V764.642C244.058 764.642 244.075 764.602 244.093 764.561C244.111 764.522 244.128 764.481 244.128 764.403C244.128 764.362 244.111 764.322 244.093 764.283C244.075 764.243 244.04 764.202 244.005 764.163V763.844L243.902 761.528C243.902 761.489 243.884 761.447 243.867 761.447C243.834 761.447 243.814 761.489 243.814 761.528L243.728 763.844L243.711 764.163C243.675 764.202 243.659 764.243 243.625 764.283C243.607 764.323 243.589 764.363 243.589 764.403C243.589 764.481 243.607 764.522 243.625 764.561C243.642 764.602 243.659 764.642 243.693 764.642V764.961C243.642 764.961 243.607 765.001 243.589 765.081C243.555 765.119 243.52 765.2 243.52 765.28C243.52 765.319 243.555 765.399 243.571 765.44C243.589 765.48 243.625 765.519 243.659 765.56L243.642 765.879C243.52 765.958 243.347 766.119 243.173 766.239C243.001 766.398 242.844 766.598 242.756 766.797C242.689 766.997 242.67 767.196 242.689 767.355C242.689 767.474 242.704 767.636 242.723 767.715C242.185 768.073 241.507 768.553 240.885 769.153C240.258 769.75 239.704 770.429 239.426 771.149C238.837 772.705 239.114 774.223 239.357 775.022H238.871C238.647 775.022 238.455 775.221 238.455 775.502C238.455 775.74 238.647 775.979 238.871 775.979H239.219V780.412C238.871 780.491 238.595 780.891 238.595 781.33C238.595 781.65 238.751 781.888 238.941 782.049V785.642H238.915V785.488C237.429 773.616 231.055 763.772 215.138 756.409C206.951 752.62 202.892 747.471 200.905 743.691C202.81 742.732 204.143 740.547 204.143 738C204.143 734.966 202.252 732.444 199.754 731.902L199.665 729.163C200.355 728.817 200.839 728.027 200.839 727.106C200.839 726.127 200.291 725.303 199.53 724.996L199.319 718.424C201.738 719.022 204.316 718.92 206.827 717.946C210.598 716.48 213.468 713.387 215.078 709.574C213.735 710.898 212.161 711.949 210.385 712.639C202.95 715.524 194.881 710.922 192.371 702.365C191.128 698.124 191.475 693.719 193.045 690C188.768 694.218 186.9 701.146 188.814 707.671C190.402 713.092 194.227 716.918 198.706 718.265L198.358 724.956C197.541 725.223 196.938 726.079 196.938 727.106C196.938 728.039 197.433 728.838 198.137 729.177L197.997 731.857C195.374 732.279 193.353 734.864 193.353 738C193.353 740.658 194.806 742.918 196.845 743.805C194.837 747.574 190.776 752.658 182.672 756.409C167.842 763.269 161.293 772.283 159.266 783.084V782.048C159.456 781.888 159.613 781.649 159.613 781.33C159.613 780.89 159.336 780.49 158.988 780.412V775.979H159.336C159.56 775.979 159.751 775.74 159.751 775.501C159.751 775.22 159.561 775.022 159.336 775.022H158.851C159.094 774.222 159.37 772.705 158.781 771.149C158.503 770.429 157.949 769.75 157.323 769.153C156.7 768.553 156.022 768.073 155.484 767.715C155.502 767.635 155.519 767.474 155.519 767.354C155.537 767.196 155.519 766.996 155.451 766.796C155.364 766.597 155.206 766.397 155.034 766.238C154.861 766.118 154.687 765.958 154.566 765.879L154.548 765.559C154.583 765.518 154.618 765.479 154.636 765.439C154.652 765.399 154.687 765.319 154.687 765.28C154.687 765.2 154.652 765.119 154.618 765.081C154.6 765 154.566 764.961 154.514 764.961V764.641C154.548 764.641 154.566 764.601 154.583 764.561C154.6 764.522 154.618 764.48 154.618 764.402C154.618 764.362 154.6 764.322 154.583 764.283C154.548 764.242 154.532 764.201 154.497 764.162L154.48 763.843L154.393 761.528C154.393 761.488 154.374 761.447 154.341 761.447C154.323 761.447 154.305 761.488 154.305 761.528L154.203 763.843V764.162C154.167 764.202 154.132 764.243 154.115 764.283C154.097 764.322 154.08 764.362 154.08 764.402C154.08 764.481 154.097 764.522 154.115 764.561C154.132 764.601 154.15 764.641 154.167 764.641V764.961C154.132 764.961 154.097 765 154.064 765.081C154.028 765.119 154.012 765.2 154.012 765.28C154.012 765.319 154.028 765.399 154.064 765.439C154.064 765.48 154.097 765.519 154.132 765.559V765.879C153.993 765.958 153.82 766.118 153.664 766.238C153.473 766.397 153.335 766.597 153.248 766.796C153.161 766.996 153.161 767.156 153.161 767.354C153.161 767.474 153.195 767.635 153.23 767.715C152.659 768.073 151.983 768.553 151.358 769.153C150.733 769.75 150.179 770.429 149.902 771.149C149.311 772.705 149.605 774.222 149.831 775.022H149.432C149.208 775.022 149.016 775.22 149.016 775.501C149.016 775.74 149.207 775.979 149.432 775.979H149.762V780.412C149.415 780.49 149.137 780.89 149.137 781.33C149.137 781.649 149.311 781.888 149.519 782.048V785.642H147.802V780.89H145.426V779.733H145.634C145.843 779.733 146.017 779.532 146.017 779.292C146.017 779.014 145.843 778.814 145.634 778.814H145.426C145.808 777.776 146.813 774.421 145.514 771.028C145.01 769.67 143.988 768.433 142.824 767.315C141.681 766.237 140.431 765.318 139.41 764.639C139.461 764.479 139.495 764.24 139.512 763.96C139.529 763.681 139.495 763.322 139.355 762.963C139.218 762.603 138.906 762.244 138.594 761.965C138.281 761.685 137.968 761.445 137.725 761.286L137.691 760.688C137.76 760.607 137.83 760.568 137.865 760.447C137.899 760.368 137.934 760.247 137.934 760.128C137.934 760.007 137.899 759.888 137.848 759.769C137.796 759.689 137.725 759.61 137.657 759.569L137.639 759.011C137.691 758.97 137.725 758.89 137.761 758.85C137.796 758.77 137.814 758.69 137.814 758.57C137.814 758.491 137.796 758.371 137.743 758.29C137.709 758.212 137.657 758.171 137.604 758.132L137.588 757.533L137.413 753.221C137.413 753.181 137.38 753.141 137.327 753.102C137.275 753.102 137.241 753.141 137.241 753.221L137.068 757.533L137.049 758.132C136.998 758.171 136.928 758.212 136.894 758.29C136.859 758.371 136.825 758.491 136.825 758.57C136.825 758.69 136.859 758.77 136.894 758.85C136.928 758.89 136.964 758.97 137.016 759.011L136.998 759.569C136.911 759.61 136.859 759.689 136.789 759.769C136.755 759.888 136.72 760.007 136.72 760.128C136.72 760.247 136.755 760.368 136.789 760.447C136.825 760.568 136.878 760.607 136.946 760.688L136.929 761.286C136.686 761.445 136.356 761.685 136.062 761.965C135.732 762.244 135.437 762.603 135.299 762.963C135.16 763.322 135.126 763.681 135.126 763.96C135.16 764.24 135.195 764.479 135.245 764.639C134.223 765.318 132.958 766.237 131.829 767.315C130.667 768.433 129.644 769.67 129.124 771.028C127.842 774.421 128.83 777.776 129.228 778.814H129.019C128.812 778.814 128.621 779.014 128.621 779.292C128.621 779.532 128.812 779.733 129.019 779.733H129.108V780.89H126.852V785.642H125.863L125.845 773.783H126.385C126.747 773.783 127.043 773.424 127.043 773.025C127.043 772.587 126.746 772.267 126.385 772.267H125.829L125.777 760.888H125.968C126.279 760.888 126.557 760.608 126.557 760.248C126.557 759.849 126.279 759.57 125.968 759.57H125.76L125.724 750.347H125.968C126.246 750.347 126.488 750.067 126.488 749.748C126.488 749.468 126.314 749.228 126.089 749.189V747.352L126.107 747.272C126.089 747.232 126.089 747.193 126.089 747.152V746.394H126.297C126.454 746.394 126.557 746.274 126.557 746.114C126.557 745.954 126.454 745.795 126.297 745.795H126.001C126.14 745.315 126.33 744.358 125.968 743.4C125.795 742.96 125.447 742.521 125.05 742.162C124.667 741.763 124.234 741.483 123.886 741.244C123.904 741.204 123.922 741.124 123.922 741.003C123.922 740.924 123.922 740.805 123.886 740.684C123.817 740.524 123.731 740.405 123.609 740.325C123.505 740.245 123.401 740.166 123.332 740.125L123.314 739.886C123.332 739.886 123.365 739.847 123.365 739.806C123.384 739.806 123.401 739.766 123.401 739.726C123.401 739.686 123.384 739.645 123.365 739.606C123.349 739.566 123.332 739.527 123.297 739.527V739.327C123.314 739.327 123.332 739.288 123.332 739.288C123.349 739.247 123.365 739.207 123.365 739.167C123.365 739.167 123.349 739.127 123.332 739.086C123.332 739.047 123.297 739.047 123.279 739.047V738.847L123.227 737.37C123.227 737.37 123.211 737.33 123.194 737.33C123.175 737.33 123.159 737.37 123.159 737.37L123.106 738.847L123.088 739.047C123.071 739.047 123.055 739.047 123.055 739.086C123.02 739.127 123.02 739.167 123.02 739.167C123.02 739.207 123.02 739.247 123.036 739.288C123.055 739.288 123.055 739.327 123.088 739.327V739.527C123.055 739.527 123.02 739.566 123.02 739.606C122.985 739.646 122.985 739.687 122.985 739.726C122.985 739.766 122.985 739.806 123.02 739.806C123.02 739.847 123.036 739.886 123.055 739.886V740.125C122.968 740.166 122.863 740.245 122.759 740.325C122.638 740.405 122.552 740.524 122.5 740.684C122.464 740.805 122.447 740.924 122.447 741.003C122.447 741.124 122.464 741.204 122.482 741.244C122.135 741.483 121.702 741.763 121.32 742.162C120.939 742.521 120.591 742.96 120.417 743.4C120.037 744.358 120.227 745.315 120.365 745.795H120.122C119.967 745.795 119.862 745.954 119.862 746.114C119.862 746.274 119.967 746.394 120.122 746.394H120.332V749.189C120.106 749.228 119.932 749.468 119.932 749.748C119.932 750.067 120.175 750.347 120.452 750.347H120.695L120.662 759.57H120.452C120.14 759.57 119.862 759.849 119.862 760.248C119.862 760.608 120.14 760.888 120.452 760.888H120.642L120.591 772.267H120.036C119.671 772.267 119.377 772.587 119.377 773.025C119.377 773.424 119.671 773.783 120.036 773.783H120.591L120.555 794.346H118.684V793.188H118.874C119.1 793.188 119.274 792.988 119.274 792.748C119.274 792.469 119.1 792.269 118.874 792.269H118.668C119.065 791.231 120.071 787.877 118.77 784.483C118.267 783.125 117.226 781.888 116.064 780.771C114.937 779.691 113.689 778.774 112.648 778.095C112.7 777.935 112.753 777.695 112.753 777.457C112.769 777.136 112.735 776.778 112.614 776.419C112.457 776.059 112.162 775.7 111.85 775.421C111.538 775.141 111.226 774.901 110.983 774.742L110.948 774.144C111.018 774.063 111.069 774.023 111.105 773.903C111.157 773.823 111.192 773.703 111.192 773.584C111.192 773.464 111.157 773.344 111.087 773.224C111.053 773.145 110.983 773.064 110.915 773.024L110.88 772.465C110.932 772.426 110.983 772.347 111.001 772.306C111.053 772.226 111.053 772.147 111.053 772.027C111.053 771.947 111.036 771.826 110.983 771.747C110.948 771.667 110.915 771.628 110.844 771.588L110.828 770.989L110.655 766.677C110.655 766.637 110.619 766.597 110.566 766.556C110.532 766.556 110.498 766.597 110.498 766.677L110.325 770.989L110.289 771.588C110.237 771.628 110.186 771.668 110.151 771.747C110.116 771.826 110.082 771.947 110.082 772.027C110.082 772.146 110.098 772.226 110.151 772.306C110.169 772.347 110.222 772.426 110.255 772.465L110.237 773.024C110.151 773.064 110.098 773.145 110.047 773.224C109.995 773.344 109.96 773.464 109.96 773.584C109.96 773.703 109.976 773.823 110.047 773.903C110.082 774.023 110.116 774.063 110.186 774.144L110.169 774.742C109.925 774.901 109.596 775.141 109.302 775.421C108.972 775.7 108.677 776.059 108.537 776.419C108.417 776.778 108.382 777.136 108.382 777.457C108.382 777.695 108.451 777.935 108.486 778.095C107.463 778.775 106.198 779.691 105.069 780.771C103.907 781.888 102.884 783.125 102.381 784.483C101.08 787.877 102.068 791.231 102.483 792.269H102.259C102.034 792.269 101.861 792.469 101.861 792.748C101.861 792.988 102.034 793.188 102.259 793.188H102.346V794.346C100.49 790.653 94.2184 790.106 92.1168 795.206L92.089 789.535H92.2943C92.6283 789.535 92.9017 789.213 92.9017 788.83C92.9017 788.446 92.6283 788.129 92.2943 788.129H92.0791L92.0303 778.37H92.2947C92.5891 778.37 92.8339 778.092 92.8339 777.749C92.8339 777.45 92.6523 777.202 92.4131 777.139V774.217H92.6477C92.7959 774.217 92.9227 774.069 92.9227 773.89C92.9227 773.715 92.7959 773.573 92.6477 773.573H92.3293C92.4817 773.049 92.6778 772.045 92.2855 771.023C92.0989 770.549 91.7371 770.099 91.3151 769.703C90.9129 769.32 90.462 768.992 90.0998 768.755C90.1142 768.688 90.1291 768.608 90.134 768.512C90.1382 768.394 90.1291 768.269 90.08 768.146C90.0308 768.01 89.9234 767.886 89.805 767.785C89.698 767.689 89.5799 767.61 89.4965 767.554L89.4915 767.333C89.5113 767.311 89.5311 767.282 89.541 767.254C89.5601 767.215 89.5704 767.176 89.5704 767.136C89.5704 767.09 89.5601 767.04 89.541 767.006C89.5212 766.972 89.5014 766.949 89.4721 766.927L89.4622 766.735C89.4812 766.717 89.4965 766.695 89.5068 766.666C89.5212 766.645 89.5311 766.61 89.5311 766.577C89.5311 766.543 89.5212 766.504 89.5014 766.476C89.4915 766.453 89.4721 766.431 89.4523 766.407L89.4428 766.204L89.3841 764.659C89.3841 764.642 89.3746 764.626 89.3544 764.626C89.3342 764.626 89.3247 764.637 89.3201 764.659L89.2615 766.204L89.2562 766.407C89.2322 766.431 89.2127 766.453 89.2021 766.476C89.1838 766.504 89.1781 766.543 89.1781 766.577C89.1781 766.61 89.1838 766.645 89.1979 766.666C89.2074 766.695 89.2272 766.717 89.2364 766.735L89.2322 766.927C89.2074 766.949 89.1781 766.972 89.1682 767.006C89.1442 767.04 89.1339 767.089 89.1339 767.136C89.1339 767.176 89.1438 767.215 89.1636 767.254C89.1731 767.282 89.1979 767.311 89.2177 767.333L89.2074 767.554C89.1194 767.61 89.0014 767.689 88.8989 767.785C88.7808 767.886 88.6734 768.011 88.6293 768.146C88.5752 768.269 88.5653 768.394 88.5706 768.512C88.5706 768.608 88.5897 768.687 88.6095 768.755C88.2419 768.992 87.7914 769.32 87.3839 769.703C86.9718 770.098 86.6 770.549 86.4188 771.023C86.0314 772.045 86.218 773.049 86.3746 773.573H86.1099C85.953 773.573 85.8261 773.715 85.8261 773.89C85.8261 774.069 85.953 774.217 86.1099 774.217H86.3251V777.139C86.0897 777.207 85.9134 777.455 85.9134 777.749C85.9134 778.092 86.164 778.37 86.4622 778.37H86.7166L86.6686 788.129H86.4622C86.124 788.129 85.8444 788.446 85.8444 788.83C85.8444 789.213 86.1236 789.535 86.4622 789.535H86.6686L86.6191 798.219C84.1991 792.453 79.2403 788.373 73.4101 787.888V787.207C73.4101 787.097 73.3728 786.99 73.3046 786.912C73.2357 786.833 73.1458 786.79 73.0487 786.79H72.7516L72.5185 779.807C73.8356 779.175 74.857 777.819 75.1217 776.084C75.4352 774.024 74.5973 772.042 73.1473 771.002C73.767 772.035 74.045 773.339 73.842 774.677C73.4322 777.38 71.189 779.188 68.8444 778.715C68.2819 778.602 67.7681 778.369 67.3099 778.043C67.9467 779.104 68.9347 779.88 70.1252 780.121C70.8633 780.271 71.5824 780.172 72.2455 779.911L72.0074 786.79H71.7172C71.5131 786.79 71.3451 786.983 71.3451 787.219V787.873C65.0579 788.279 59.7529 792.865 57.486 799.265C57.1695 798.848 56.7978 798.451 56.4055 798.072C55.6442 797.344 54.801 796.723 54.0975 796.264C54.1322 796.157 54.168 795.995 54.168 795.833C54.179 795.617 54.1562 795.374 54.0739 795.132C53.968 794.889 53.7689 794.646 53.5582 794.457C53.3472 794.268 53.1366 794.106 52.9721 793.998L52.9485 793.594C52.9953 793.54 53.0304 793.513 53.0547 793.432C53.0898 793.379 53.1134 793.296 53.1134 793.216C53.1134 793.135 53.0898 793.054 53.0422 792.972C53.0197 792.919 52.9721 792.865 52.926 792.838L52.902 792.46C52.9371 792.433 52.9721 792.379 52.9847 792.352C53.0197 792.298 53.0197 792.244 53.0197 792.163C53.0197 792.109 53.0071 792.027 52.9721 791.975C52.9485 791.92 52.926 791.894 52.878 791.866L52.867 791.461L52.7501 788.548C52.7501 788.521 52.7261 788.495 52.6903 788.467C52.6674 788.467 52.6442 788.495 52.6442 788.548L52.5269 791.461L52.5029 791.866C52.4682 791.894 52.4339 791.92 52.41 791.975C52.386 792.027 52.3627 792.109 52.3627 792.163C52.3627 792.244 52.3742 792.298 52.41 792.352C52.4218 792.379 52.4576 792.434 52.48 792.46L52.4682 792.838C52.41 792.865 52.3742 792.919 52.3395 792.972C52.3048 793.054 52.2808 793.135 52.2808 793.216C52.2808 793.297 52.2923 793.379 52.3395 793.432C52.3627 793.513 52.386 793.54 52.4339 793.594L52.4218 793.998C52.2569 794.106 52.0344 794.268 51.8364 794.457C51.6128 794.646 51.4136 794.889 51.3192 795.132C51.2377 795.374 51.2144 795.617 51.2144 795.833C51.2144 795.995 51.2609 796.157 51.2849 796.264C50.5936 796.723 49.7386 797.344 48.9761 798.072C48.19 798.828 47.4992 799.664 47.159 800.582C46.9423 801.147 46.8208 801.71 46.763 802.249C44.482 801.228 42.5526 799.935 41.0086 798.423C41.0725 798.278 41.119 798.122 41.119 797.948C41.119 797.519 40.8916 797.15 40.5671 796.987L40.3363 792.838H40.0659L39.834 796.987C39.5095 797.15 39.2856 797.519 39.2856 797.948C39.2856 798.122 39.3286 798.278 39.3949 798.423C37.7088 800.065 35.544 801.478 33.004 802.529C29.101 804.137 26.4967 807.016 26.4967 810.305C26.4967 811.247 26.7119 812.159 27.1072 813.012H25.5796V805.439H25.6702C25.9296 805.439 26.1406 805.198 26.1406 804.898V804.592C26.1406 804.296 25.9296 804.053 25.6702 804.053H25.0551C25.0807 803.852 25.0982 803.654 25.0982 803.44C25.0982 801.997 24.4336 800.728 23.4376 800.021C22.8184 799.583 22.2905 799.014 21.8746 798.344C21.9538 798.259 22.0003 798.137 22.0003 798.005C22.0003 797.817 21.9031 797.651 21.7596 797.581L21.6567 795.755H21.5387L21.4374 797.581C21.2938 797.651 21.1955 797.817 21.1955 798.005C21.1955 798.138 21.2439 798.259 21.3223 798.344C20.9019 799.011 20.3729 799.584 19.7612 800.021C18.7641 800.727 18.0984 801.997 18.0984 803.44C18.0984 803.654 18.1151 803.852 18.1448 804.053H17.508C17.2494 804.053 17.0407 804.297 17.0407 804.592V804.898C17.0407 805.199 17.2494 805.439 17.508 805.439H17.6151V813.381C17.0872 811.28 15.7115 809.596 13.9333 808.853C13.9356 808.819 13.9421 808.786 13.9421 808.752C13.9421 807.741 13.3822 806.892 12.6007 806.565L12.315 805.568C12.371 805.477 12.4102 805.373 12.4102 805.255C12.4102 805.026 12.2876 804.832 12.1189 804.742L11.941 801.596C11.941 801.581 11.9262 801.571 11.9113 801.571C11.9014 801.571 11.8881 801.581 11.8881 801.596L11.7102 804.742C11.5426 804.832 11.4211 805.025 11.4211 805.255C11.4211 805.373 11.4585 805.476 11.5114 805.566L11.2277 806.565C10.4473 806.892 9.88857 807.744 9.88857 808.752C9.88857 808.786 9.89542 808.819 9.89542 808.853C7.61332 809.807 5.97181 812.303 5.97181 815.263C5.97181 815.972 6.08988 816.644 6.26431 817.288H4.21148V818.322H4.00049V857H394V818.322V817.288H391.948V817.288ZM378.799 808.893C378.799 807.825 379.073 806.929 379.446 806.659C379.817 806.928 380.088 807.825 380.088 808.893V813.084H378.799V808.893ZM374.982 808.447C374.982 807.269 375.672 806.278 376.614 805.974C377.552 806.277 378.243 807.269 378.243 808.447V813.084H375.77V813.012H374.982V808.447ZM373.147 808.893C373.147 807.825 373.419 806.929 373.79 806.659C374.164 806.928 374.436 807.825 374.436 808.893V813.012H373.146V808.893H373.147ZM307.907 775.458C307.686 774.735 308.721 774.77 308.838 774.217C308.961 774.77 309.995 774.735 309.77 775.458C309.74 775.571 309.706 775.66 309.785 775.773C309.858 775.887 309.848 775.977 309.848 775.977V777.122H307.838V775.977C307.838 775.977 307.819 775.887 307.897 775.773C307.976 775.66 307.946 775.571 307.907 775.458ZM273.925 748.858V746.791C273.925 745.988 274.394 745.314 275.036 745.107C275.674 745.314 276.146 745.989 276.146 746.791V748.906H273.924L273.925 748.858ZM245.931 775.354C245.931 774.285 246.205 773.39 246.579 773.119C246.949 773.39 247.22 774.285 247.22 775.354V778.646H245.931V775.354ZM242.181 778.571V775.535C242.181 774.357 242.871 773.366 243.813 773.062C244.751 773.365 245.443 774.357 245.443 775.535V778.641H242.179L242.181 778.571ZM240.279 775.354C240.279 774.285 240.551 773.39 240.922 773.119C241.295 773.39 241.568 774.285 241.568 775.354V778.656H240.278L240.279 775.354ZM156.643 775.354C156.643 774.285 156.915 773.39 157.289 773.119C157.66 773.39 157.933 774.285 157.933 775.354V778.656H156.643V775.354ZM152.768 775.535C152.768 774.357 153.46 773.366 154.397 773.062C155.34 773.365 156.03 774.357 156.03 775.535V778.571L156.031 778.641H152.767V775.535H152.768ZM150.991 775.354C150.991 774.285 151.262 773.39 151.632 773.119C152.006 773.39 152.281 774.285 152.281 775.354V778.646H150.991V775.354ZM122.066 746.791C122.066 745.988 122.537 745.314 123.175 745.107C123.817 745.314 124.287 745.989 124.287 746.791V748.858L124.288 748.905H122.066V746.791ZM88.4415 775.458C88.2164 774.735 89.2508 774.77 89.3731 774.217C89.4904 774.77 90.5244 774.735 90.3047 775.458C90.2651 775.571 90.2353 775.66 90.3138 775.773C90.3923 775.887 90.3732 775.977 90.3732 775.977V777.122H88.363V775.977C88.363 775.977 88.3531 775.887 88.4266 775.773C88.5055 775.66 88.4716 775.571 88.4415 775.458ZM23.7754 808.893C23.7754 807.825 24.047 806.929 24.4214 806.659C24.7923 806.928 25.0647 807.825 25.0647 808.893V813.012H23.7754V808.893ZM19.968 808.447C19.968 807.269 20.66 806.278 21.5973 805.974C22.5403 806.277 23.2301 807.269 23.2301 808.447V813.012H22.4405V813.084H19.9676L19.968 808.447ZM18.1231 808.893C18.1231 807.825 18.3947 806.929 18.7645 806.659C19.1389 806.928 19.4127 807.825 19.4127 808.893V813.084H18.1231V808.893Z" fill="#00133F"/>
</g>
<g filter="url(#filter1_d_301_1445)">
<path d="M267.873 455.677L252.912 450.804L192.154 479.39L131.392 450.804L116.436 455.677L192.154 487.348L267.873 455.677Z" fill="#65D6FC"/>
<path d="M278.305 454.621L192.154 490.68L106 454.621V458.032L175.612 488.839L121.019 511.997H141.104L184.588 492.814L192.154 496.161L199.717 492.814L243.201 511.997H263.289L208.692 488.839L278.305 458.032V454.621Z" fill="#65D6FC"/>
<path d="M247.726 450.804C219.68 452.224 192.154 473.135 192.154 473.135C192.154 473.135 164.629 452.224 136.583 450.804L192.154 477.155L247.726 450.804Z" fill="#65D6FC"/>
<path d="M197.998 334.602C187.633 334.602 179.229 326.536 179.229 316.588C179.229 309.93 182.995 304.118 188.592 301C178.998 302.886 171.78 311.035 171.78 320.803C171.78 331.968 181.21 341.019 192.843 341.019C201.838 341.019 209.51 335.605 212.532 327.99C209.088 332.025 203.858 334.602 197.998 334.602Z" fill="#65D6FC"/>
<g filter="url(#filter2_d_301_1445)">
<path d="M198.574 306.545L201.412 312.068L207.761 312.951L203.165 317.249L204.25 323.316L198.574 320.453L192.894 323.316L193.978 317.249L189.387 312.951L195.736 312.068L198.574 306.545Z" fill="#65D6FC"/>
</g>
<path d="M245.71 387.725C239.796 382.086 232.499 378.01 225.34 373.911C212.959 366.818 199.576 358.147 193.657 344.997C193.074 343.701 192.577 342.371 192.154 341.019C191.732 342.371 191.234 343.701 190.651 344.997C184.733 358.147 171.35 366.818 158.969 373.911C151.809 378.01 144.513 382.09 138.598 387.725C128.848 397.012 125.423 410.154 129.705 422.766C131.275 427.391 133.78 431.662 136.951 435.453C138.422 437.215 140.039 438.872 141.777 440.409H141.679V448.103H158.01C150.463 446.123 151.375 440.412 151.375 440.409C151.019 440.138 150.651 439.886 150.298 439.608C148.643 438.293 147.085 436.903 145.644 435.449C135.592 425.321 131.193 412.04 139.679 398.782C147.453 386.639 160.981 379.896 172.888 372.153C179.491 367.862 185.876 362.888 190.33 356.614C190.557 367.926 196.264 379.79 204.809 386.936C211.358 392.406 219.343 395.889 227.054 399.552C238.519 405.003 250.803 413.907 244.544 427.582C243.256 430.396 241.471 433.004 239.396 435.446C238.179 436.877 236.86 438.252 235.486 439.574C234.339 439.496 233.192 439.42 232.045 439.372C229.677 439.278 227.309 439.315 224.941 439.304C220.204 439.3 215.468 439.402 210.736 439.473L196.53 439.792L189.426 440.007L185.876 440.112L184.099 440.164C183.508 440.179 182.916 440.209 182.321 440.401C182.913 440.593 183.504 440.623 184.099 440.638L185.876 440.69L189.426 440.795L196.53 441.01L210.736 441.329C215.472 441.4 220.208 441.502 224.941 441.498C227.309 441.487 229.677 441.524 232.045 441.43C232.914 441.393 233.779 441.336 234.648 441.28C234.562 442.959 233.697 446.592 227.986 448.091H242.645V440.397H242.363C244.074 438.827 245.694 437.181 247.182 435.442C250.384 431.7 252.995 427.526 254.615 422.755C258.886 410.158 255.461 397.016 245.71 387.725Z" fill="#65D6FC"/>
</g>
<path d="M190.383 405.212C195.583 399.254 200.315 394.525 198.094 392.129C195.873 389.733 159.944 403.073 161.971 406.556C163.179 408.631 195.281 431.927 198.448 433.802C202.167 436.002 208.142 433.427 207.615 429.335L202.767 391.812C202.767 391.812 205.221 395.108 205.979 397.385M215.092 432.223C214.567 428.133 210.244 394.698 210.244 394.698C210.244 394.698 212.698 397.994 213.456 400.273" stroke="#65D6FC" stroke-width="3" stroke-linecap="round" stroke-linejoin="round"/>
<path d="M201.131 447.563C201.131 434.608 196.777 405.873 196.777 405.873C196.777 405.873 199.231 409.167 199.992 411.446M187.979 407.306C187.221 405.027 184.769 401.731 184.769 401.731C184.769 401.731 186.004 416.748 193.188 419.727C173.925 410.396 164.756 440.931 156.433 431.994C150.494 425.619 161.163 416.66 161.163 416.66" stroke="#65D6FC" stroke-width="3" stroke-linecap="round" stroke-linejoin="round"/>
<path d="M220.992 406.229C220.231 403.952 217.779 400.656 217.779 400.656C217.779 400.656 222 437.937 222.9 447.562C223.327 452.148 214.829 454.25 211.675 446.542C208.521 438.833 211.412 436.64 213.34 436.64C215.267 436.64 218.423 443.065 213.34 446.044C208.256 449.023 199.787 451.185 197.219 454.162C194.65 457.14 190.15 463.975 187.171 463.975C184.192 463.975 178.352 460.765 185.01 447.562M228.352 441.896C227.825 435.063 224.262 407.375 224.262 407.375C224.262 407.375 226.717 410.669 227.475 412.948M171.152 395.633C174.744 393.398 182.148 391.998 186.002 388.975M160.71 433.652C155.921 438.917 157.265 449.604 162.875 447.854C164.969 447.2 167.49 442.846 171.694 440.963C178.75 437.804 187.775 436.192 187.231 431.15C186.531 424.638 180.281 420.848 180.281 420.848" stroke="#65D6FC" stroke-width="3" stroke-linecap="round" stroke-linejoin="round"/>
<path d="M195.788 437.456C192.794 436.133 191.815 434.608 191.815 434.608C194.24 440.025 196.108 443.325 196.169 445.925C196.229 448.525 182.821 456.833 177.065 456.833C170.365 456.833 165.46 452.017 167.365 444.021M163.115 407.698C158.71 409.74 155.979 419.4 159.338 418.425" stroke="#65D6FC" stroke-width="3" stroke-linecap="round" stroke-linejoin="round"/>
<g filter="url(#filter3_f_301_1445)">
<ellipse cx="187" rx="169" ry="156" fill="url(#paint1_linear_301_1445)" fill-opacity="0.5"/>
</g>
</g>
</g>
<defs>
<filter id="filter0_d_301_1445" x="0" y="0" width="383" height="820" filterUnits="userSpaceOnUse" color-interpolation-filters="sRGB">
<feFlood flood-opacity="0" result="BackgroundImageFix"/>
<feColorMatrix in="SourceAlpha" type="matrix" values="0 0 0 0 0 0 0 0 0 0 0 0 0 0 0 0 0 0 127 0" result="hardAlpha"/>
<feOffset dy="4"/>
<feGaussianBlur stdDeviation="2"/>
<feComposite in2="hardAlpha" operator="out"/>
<feColorMatrix type="matrix" values="0 0 0 0 0 0 0 0 0 0 0 0 0 0 0 0 0 0 0.25 0"/>
<feBlend mode="normal" in2="BackgroundImageFix" result="effect1_dropShadow_301_1445"/>
<feBlend mode="normal" in="SourceGraphic" in2="effect1_dropShadow_301_1445" result="shape"/>
</filter>
<filter id="filter1_d_301_1445" x="42" y="237" width="300.305" height="338.997" filterUnits="userSpaceOnUse" color-interpolation-filters="sRGB">
<feFlood flood-opacity="0" result="BackgroundImageFix"/>
<feColorMatrix in="SourceAlpha" type="matrix" values="0 0 0 0 0 0 0 0 0 0 0 0 0 0 0 0 0 0 127 0" result="hardAlpha"/>
<feOffset/>
<feGaussianBlur stdDeviation="32"/>
<feComposite in2="hardAlpha" operator="out"/>
<feColorMatrix type="matrix" values="0 0 0 0 0.396078 0 0 0 0 0.839216 0 0 0 0 0.988235 0 0 0 1 0"/>
<feBlend mode="normal" in2="BackgroundImageFix" result="effect1_dropShadow_301_1445"/>
<feBlend mode="normal" in="SourceGraphic" in2="effect1_dropShadow_301_1445" result="shape"/>
</filter>
<filter id="filter2_d_301_1445" x="181.387" y="298.545" width="34.3738" height="32.7709" filterUnits="userSpaceOnUse" color-interpolation-filters="sRGB">
<feFlood flood-opacity="0" result="BackgroundImageFix"/>
<feColorMatrix in="SourceAlpha" type="matrix" values="0 0 0 0 0 0 0 0 0 0 0 0 0 0 0 0 0 0 127 0" result="hardAlpha"/>
<feOffset/>
<feGaussianBlur stdDeviation="4"/>
<feComposite in2="hardAlpha" operator="out"/>
<feColorMatrix type="matrix" values="0 0 0 0 0.396078 0 0 0 0 0.839216 0 0 0 0 0.988235 0 0 0 1 0"/>
<feBlend mode="normal" in2="BackgroundImageFix" result="effect1_dropShadow_301_1445"/>
<feBlend mode="normal" in="SourceGraphic" in2="effect1_dropShadow_301_1445" result="shape"/>
</filter>
<filter id="filter3_f_301_1445" x="-90" y="-264" width="554" height="528" filterUnits="userSpaceOnUse" color-interpolation-filters="sRGB">
<feFlood flood-opacity="0" result="BackgroundImageFix"/>
<feBlend mode="normal" in="SourceGraphic" in2="BackgroundImageFix" result="shape"/>
<feGaussianBlur stdDeviation="54" result="effect1_foregroundBlur_301_1445"/>
</filter>
<linearGradient id="paint0_linear_301_1445" x1="4" y1="0" x2="379" y2="812" gradientUnits="userSpaceOnUse">
<stop stop-color="#112095"/>
<stop offset="1" stop-color="#092052"/>
</linearGradient>
<linearGradient id="paint1_linear_301_1445" x1="187" y1="-156" x2="187" y2="156" gradientUnits="userSpaceOnUse">
<stop stop-color="#65D6FC"/>
<stop offset="1" stop-color="#5E17EB"/>
</linearGradient>
<clipPath id="clip0_301_1445">
<rect x="4" width="375" height="812" rx="35" fill="white"/>
</clipPath>
</defs>
</svg>
